<svg width="64" height="64" viewBox="0 0 64 64" fill="none" xmlns="http://www.w3.org/2000/svg">
<path d="M32 62C48.5685 62 62 48.5685 62 32C62 15.4315 48.5685 2 32 2C15.4315 2 2 15.4315 2 32C2 48.5685 15.4315 62 32 62Z" fill="#ED4C5C"/>
<path d="M22 28.4L30 34L27 24.8L35 19H25.1L22 10L19 19H9L17 24.8L14 34L22 28.4ZM35.3 35.3L33 35.8L35.2 36.7V39L36.7 37.3L38.9 38.1L37.6 36.2L39 34.4L36.7 34.9L35.3 33V35.3ZM38.7 28.5L37 30L39.3 29.8L40.3 32L40.7 29.7L43 29.5L41 28.3L41.5 26L39.8 27.5L37.8 26.3L38.7 28.5ZM39.3 20.7L40 23L40.7 20.8H43L41.2 19.4L41.9 17.1L40 18.5L38.2 17L38.9 19.3L37 20.6L39.3 20.7ZM35.3 12.7V15L36.7 13.1L39 13.6L37.6 11.8L38.9 9.9L36.7 10.8L35.2 9V11.3L33 12.2L35.3 12.7Z" fill="#FFE62E"/>
</svg>
