   <svg width="434" height="421"
                                                                            viewBox="0 0 434 421" fill="none"
                                                                            xmlns="http://www.w3.org/2000/svg">
                                                                            <path
                                                                                d="M267.419 237.668L73.5088 403.798C73.5088 403.798 131.76 422.349 226.256 389.557C323.194 355.91 405.587 267.532 415.114 156.231C423.387 59.565 405.146 48.4151 399.483 41.2779C393.957 34.305 384.633 33.417 384.633 33.417L267.419 237.668Z"
                                                                                fill="#6D2A19" />
                                                                            <path
                                                                                d="M94.3607 107.552C13.0535 193.89 16.3425 296.213 18.1395 334.662C19.3262 360.317 23.9035 373.342 36.754 387.057C48.7568 399.851 73.8135 411.297 124.842 400.805C177.974 389.886 258.84 353.837 332.077 272.926C409.757 187.082 416.131 51.6712 395.109 37.1007C374.087 22.5301 331.467 11.4789 290.068 13.8141C248.668 16.1494 170.616 26.6086 94.3607 107.552Z"
                                                                                fill="#9C3C25" />
                                                                            <path
                                                                                d="M36.178 386.563C35.1948 387.188 27.2946 382.222 26.9555 373.144C26.3452 357.817 37.0257 313.776 52.1479 280.129C66.3546 248.456 76.5265 234.28 76.5265 234.28C76.5265 234.28 66.931 225.202 67.2701 208.296C67.6091 191.39 73.6445 159.092 139.999 96.8957C210.253 30.95 233.953 37.8241 245.21 38.0873C254.466 38.3175 268.944 43.6458 270.029 43.9418C270.029 43.9418 292.306 29.8317 315.226 25.1612C338.147 20.4908 361.203 23.0891 364.967 23.4509C368.764 23.8127 375.274 25.8848 380.462 28.2859C385.412 30.5553 391.278 34.568 391.278 34.568C391.278 34.568 350.591 29.6673 324.11 36.2454C297.629 42.8235 281.015 52.4276 281.015 52.4276C281.015 52.4276 288.474 65.1891 287.796 74.0367C286.813 86.568 278.438 96.8957 254.534 120.709C233.682 141.495 158.851 223.327 149.594 232.504C137.659 244.41 122.809 250.034 109.551 248.785C96.3277 247.535 88.258 242.535 88.258 242.535C88.258 242.535 73.7123 266.644 63.0657 292.036C52.4191 317.427 45.2988 343.411 39.1618 372.848C37.636 380.281 38.009 385.379 36.178 386.563Z"
                                                                                fill="#6D291A" />
                                                                            <path
                                                                                d="M90.2921 230.695C98.9382 235.661 122.096 238.26 135.252 227.965C148.407 217.703 165.767 193.792 205.133 151.461C234.97 119.426 269.249 92.2254 270.877 76.6681C273.013 56.0786 253.89 48.6782 233.343 50.224C212.829 51.7699 174.007 79.1678 141.931 111.532C109.856 143.897 84.8332 174.682 79.7134 196.456C76.5601 209.842 79.8151 224.643 90.2921 230.695Z"
                                                                                fill="#9C3C25" />
                                                                            <path
                                                                                d="M230.528 22.9905C230.528 22.9905 256.467 27.5294 283.083 44.6326C309.7 61.7357 338.723 84.0355 356.49 102.948C366.56 113.67 394.635 148.567 396.262 148.567C397.89 148.567 401.111 127.714 402.094 119.952C403.043 112.19 404.671 104.691 403.688 101.895C402.738 99.0994 383.988 74.7933 353.642 48.6781C319.159 19.0108 287.152 13.7483 287.152 13.7483C287.152 13.7483 278.845 13.4523 257.925 16.0835C242.769 18.024 230.528 22.9905 230.528 22.9905ZM27.9047 226.978C27.9047 226.978 45.0952 230.991 74.5937 250.89C107.822 273.321 128.471 291.016 153.493 315.914C177.262 339.563 202.793 371.006 202.793 372.881C202.793 374.756 192.689 378.67 177.872 384.985C170.616 388.076 156.816 393.865 154.545 392.911C152.307 391.99 134.099 365.185 105.686 338.609C87.7154 321.802 68.1515 303.778 43.1287 288.813C27.1249 279.274 18.9874 277.432 18.9874 277.432C18.9874 277.432 18.9196 266.118 22.2763 248.982C25.294 233.819 27.9047 226.978 27.9047 226.978Z"
                                                                                fill="#F2F0EE" />
                                                                            <path
                                                                                d="M180.178 109.723C137.524 148.929 89.1395 211.026 86.4609 214.809C81.8158 221.321 81.714 226.485 87.7154 230.103C93.7169 233.721 98.0569 227.932 101.854 223.196C106.059 217.966 144.237 164.387 184.111 127.155C230.223 84.167 261.892 63.9064 265.757 60.1898C268.605 57.427 276.031 54.2695 269.928 48.6781C265.282 44.4023 256.128 49.9279 252.296 52.7236C248.431 55.5193 225.307 68.248 180.178 109.723Z"
                                                                                fill="#FDFFFF" />
                                                                            <path
                                                                                d="M224.391 44.7641C218.322 49.3359 218.899 57.6901 226.154 63.2157C231.681 67.4257 243.481 76.4707 249.109 81.4701C255.958 87.5548 262.502 88.706 267.554 84.8907C272.843 80.9109 275.59 71.0108 266.198 61.8672C256.874 52.8223 251.482 47.3954 241.684 43.6129C235.309 41.1461 228.731 41.5408 224.391 44.7641ZM216.593 67.2942C210.998 65.1892 201.572 61.0779 194.181 67.5902C186.789 74.1025 190.689 82.4897 197.334 87.1601C203.98 91.8306 213.541 101.04 223.035 107.585C228.46 111.302 237.818 114.361 244.464 107.256C249.957 101.369 245.278 91.6333 241.141 86.7326C236.326 80.9767 226.426 70.9779 216.593 67.2942ZM190.655 94.2316C183.399 90.2518 171.226 86.4365 162.987 94.6263C153.968 103.605 159.054 110.216 167.904 115.545C175.329 120.018 190.451 132.648 195.368 135.904C203.403 141.232 213.643 138.897 217.542 133.043C224.018 123.34 215.169 112.058 208.523 106.796C202.047 101.665 193.604 95.8761 190.655 94.2316ZM134.574 121.63C129.115 127.78 128.301 134.391 136.744 143.337C145.186 152.284 159.969 162.776 168.514 165.604C178.313 168.828 183.026 165.21 186.552 159.881C190.078 154.553 187.298 142.548 178.279 134.753C172.583 129.819 162.411 121.07 149.865 118.406C143.05 116.959 138.1 117.65 134.574 121.63ZM121.045 148.106C116.332 146.824 110.263 148.666 106.737 152.876C103.21 157.053 101.515 165.341 105.753 170.012C110.059 174.781 112.67 176.524 119.892 182.576C127.148 188.661 134.404 196.094 143.05 197.048C149.119 197.706 154.612 194.778 157.189 190.963C159.732 187.148 159.461 178.662 152.476 171.36C147.526 166.163 134.947 151.889 121.045 148.106ZM81.68 183.859C74.5257 192.904 78.4589 205.172 96.124 215.993C110.602 224.906 123.351 231.155 132.031 220.926C140.168 211.322 132.234 201.521 113.993 189.351C96.9039 177.971 88.156 175.702 81.68 183.859Z"
                                                                                fill="#FDFFFF" />
                                                                        </svg>