<svg width="66" height="79" viewBox="0 0 66 79" fill="none" xmlns="http://www.w3.org/2000/svg">
<g id="Group 3">
<g id="MoneyM">
<path id="Vector" d="M32 14C33.9778 14 35.9112 14.5865 37.5557 15.6853C39.2002 16.7841 40.4819 18.3459 41.2388 20.1732C41.9957 22.0004 42.1937 24.0111 41.8078 25.9509C41.422 27.8907 40.4696 29.6725 39.0711 31.0711C37.6725 32.4696 35.8907 33.422 33.9509 33.8079C32.0111 34.1937 30.0004 33.9957 28.1732 33.2388C26.3459 32.4819 24.7841 31.2002 23.6853 29.5557C22.5865 27.9112 22 25.9778 22 24C22 22.6868 22.2587 21.3864 22.7612 20.1732C23.2637 18.9599 24.0003 17.8575 24.9289 16.9289C25.8575 16.0003 26.9599 15.2638 28.1732 14.7612C29.3864 14.2587 30.6868 14 32 14V14ZM32 32C33.5822 32 35.129 31.5308 36.4446 30.6518C37.7602 29.7727 38.7855 28.5233 39.391 27.0615C39.9965 25.5997 40.155 23.9911 39.8463 22.4393C39.5376 20.8874 38.7757 19.462 37.6568 18.3431C36.538 17.2243 35.1126 16.4624 33.5607 16.1537C32.0089 15.845 30.4003 16.0035 28.9385 16.609C27.4767 17.2145 26.2273 18.2398 25.3482 19.5554C24.4692 20.871 24 22.4177 24 24C24 26.1217 24.8428 28.1566 26.3431 29.6569C27.8434 31.1571 29.8783 32 32 32V32Z" fill="#FFD233"/>
<path id="Vector_2" d="M31 23C33 23 33 22.37 33 22C33 21.63 32.3 21 31 21C29.7 21 29.61 21.64 29.6 22H27.6C27.6135 21.3188 27.8585 20.6624 28.2947 20.139C28.731 19.6155 29.3324 19.2561 30 19.12V18H32V19.09C34 19.42 35 20.71 35 22C35 23.12 34.48 25 31 25C29 25 29 25.68 29 26C29 26.32 29.62 27 31 27C32.84 27 33 26.14 33 26H35C35 26.92 34.34 28.55 32 28.92V30H30V28.92C28 28.58 27 27.29 27 26C27 24.88 27.52 23 31 23Z" fill="#FFD233"/>
</g>
<g id="MoneyT">
<path id="Vector_3" d="M13 0C14.9778 0 16.9112 0.58649 18.5557 1.6853C20.2002 2.78412 21.4819 4.3459 22.2388 6.17317C22.9957 8.00043 23.1937 10.0111 22.8078 11.9509C22.422 13.8907 21.4696 15.6725 20.0711 17.0711C18.6725 18.4696 16.8907 19.422 14.9509 19.8079C13.0111 20.1937 11.0004 19.9957 9.17316 19.2388C7.3459 18.4819 5.78411 17.2002 4.6853 15.5557C3.58649 13.9112 3 11.9778 3 10C3 8.68678 3.25865 7.38642 3.7612 6.17317C4.26375 4.95991 5.00034 3.85752 5.92893 2.92893C6.85751 2.00035 7.9599 1.26375 9.17316 0.761205C10.3864 0.258658 11.6868 0 13 0V0ZM13 18C14.5822 18 16.129 17.5308 17.4446 16.6518C18.7602 15.7727 19.7855 14.5233 20.391 13.0615C20.9965 11.5997 21.155 9.99113 20.8463 8.43928C20.5376 6.88743 19.7757 5.46197 18.6568 4.34315C17.538 3.22433 16.1126 2.4624 14.5607 2.15372C13.0089 1.84504 11.4003 2.00346 9.93853 2.60896C8.47672 3.21447 7.22729 4.23984 6.34824 5.55544C5.46919 6.87103 5 8.41775 5 10C5 12.1217 5.84285 14.1566 7.34314 15.6569C8.84343 17.1571 10.8783 18 13 18V18Z" fill="#FFD233"/>
<path id="Vector_4" d="M13 9C15 9 15 8.37 15 8C15 7.63 14.3 7 13 7C11.7 7 11.61 7.64 11.6 8H9.6C9.61352 7.31875 9.85854 6.66241 10.2947 6.13896C10.731 5.61551 11.3324 5.25614 12 5.12V4H14V5.09C16 5.42 17 6.71 17 8C17 9.12 16.48 11 13 11C11 11 11 11.68 11 12C11 12.32 11.62 13 13 13C14.84 13 15 12.14 15 12H17C17 12.92 16.34 14.55 14 14.92V16H12V14.92C10 14.58 9 13.29 9 12C9 10.88 9.52 9 13 9Z" fill="#FFD233"/>
</g>
<g id="Chanchito">
<path id="Vector_5" d="M64.7506 45.2344C64.516 44.4562 64.0981 43.7456 63.5319 43.1625C63.0997 42.6963 62.545 42.3612 61.9313 42.1956C62.2319 42.6709 62.5041 43.2194 62.7072 43.8044C62.9347 44.4016 63.0809 45.0394 63.1256 45.7016C63.1941 46.2737 63.1941 46.8519 63.1256 47.4241C62.9989 47 62.8041 46.5993 62.5488 46.2378C62.0457 45.5579 61.3734 45.0215 60.5988 44.6819C59.7407 44.2955 58.7701 44.2402 57.8738 44.5268C56.9775 44.8133 56.2189 45.4213 55.7441 46.2337C55.5409 46.5669 55.3784 46.9284 55.2566 47.3144C50.4547 39.3194 41.8138 34.0259 31.9338 34.0259C31.43 34.0259 30.9303 34.0381 30.4347 34.0666C27.3695 34.0723 24.3197 34.5002 21.3713 35.3381C21.1194 33.575 18.8038 30 8.16001 30L11.41 40.1969C9.36635 41.8488 7.64839 43.8671 6.34408 46.1484L0.0350143 46.25C0.0350143 46.25 -0.65561 62.5 4.09751 62.5H6.29126C7.78473 65.0315 9.78289 67.2288 12.1616 68.9553L12.2225 78.7459H16.61C21.9319 78.7459 24.41 78.7459 24.41 75.6991V74.1147C28.5077 74.874 32.711 74.863 36.8047 74.0822L36.5975 75.6991C36.5975 78.7459 39.1163 78.7459 44.4788 78.7459H48.785V69.0366C52.5944 66.3955 55.3359 62.4814 56.5159 57.9988C56.7475 57.8891 56.9791 57.9013 57.2147 57.9013C57.4503 57.9013 57.6819 57.8891 57.9134 57.8606C58.9331 57.6737 59.8634 57.2756 60.6719 56.7109C61.7645 55.9379 62.6007 54.8555 63.0728 53.6031C63.1866 53.2253 63.2719 52.8272 63.3288 52.4169L63.3328 52.3762C64.2306 51.3119 64.8441 49.9794 65.035 48.5128C65.201 47.3922 65.1008 46.2482 64.7425 45.1734L64.7506 45.2344ZM14.2944 45.2344C15.1025 45.2344 15.8775 45.5554 16.4489 46.1268C17.0203 46.6982 17.3413 47.4732 17.3413 48.2812C17.3413 49.0893 17.0203 49.8643 16.4489 50.4357C15.8775 51.0071 15.1025 51.3281 14.2944 51.3281C13.4863 51.3281 12.7113 51.0071 12.1399 50.4357C11.5685 49.8643 11.2475 49.0893 11.2475 48.2812C11.2475 47.4732 11.5685 46.6982 12.1399 46.1268C12.7113 45.5554 13.4863 45.2344 14.2944 45.2344V45.2344ZM23.9225 42.1875C23.4637 42.3346 22.9677 42.3146 22.5222 42.1309C22.0768 41.9473 21.7108 41.6118 21.4891 41.1841C21.42 40.9709 21.3969 40.7455 21.4213 40.5228C21.4457 40.3 21.5171 40.085 21.6307 39.8919C21.7444 39.6988 21.8977 39.532 22.0806 39.4025C22.2634 39.2729 22.4717 39.1837 22.6916 39.1406C25.3636 38.4999 28.1058 38.1996 30.8531 38.2469L31.2634 38.2428C33.9934 38.2428 36.6422 38.5678 39.1813 39.1853C39.6931 39.2828 40.2456 39.9247 40.2456 40.6966C40.2454 40.8608 40.2194 41.0239 40.1684 41.18C40.0262 41.4434 39.8256 41.6708 39.582 41.8447C39.3383 42.0186 39.0581 42.1345 38.7628 42.1834H38.1413C35.8718 41.6369 33.545 41.3642 31.2106 41.3709H30.8491C28.3913 41.3709 26.0025 41.6675 23.7153 42.2281L23.9225 42.1875ZM59.2663 54.0906C58.7181 54.4893 58.0904 54.7651 57.4259 54.8991L56.91 54.9438V54.375V53.1156C57.5803 53.6234 58.4294 53.9281 59.3475 53.9281H59.4328L59.2663 54.0906ZM59.5913 51.3281C59.2136 51.381 58.829 51.3118 58.4935 51.1306C58.158 50.9493 57.8893 50.6655 57.7266 50.3206C57.5404 49.9659 57.4435 49.5711 57.4442 49.1704C57.4449 48.7698 57.5432 48.3754 57.7306 48.0212C57.9238 47.7539 58.2082 47.5666 58.5301 47.4947C58.8519 47.4229 59.189 47.4714 59.4775 47.6313C59.8456 47.7725 60.1623 48.0221 60.3856 48.347C60.609 48.6719 60.7287 49.057 60.7288 49.4513V49.4553C60.809 50.0186 60.8077 50.5905 60.7247 51.1534C60.3474 51.2261 59.9631 51.2561 59.5791 51.2428L59.5913 51.3281Z" fill="url(#paint0_linear_733_49)" fill-opacity="0.85"/>
</g>
<g id="MoneyB">
<path id="Vector_6" d="M52 0C53.9778 0 55.9112 0.58649 57.5557 1.6853C59.2002 2.78412 60.4819 4.3459 61.2388 6.17317C61.9957 8.00043 62.1937 10.0111 61.8078 11.9509C61.422 13.8907 60.4696 15.6725 59.0711 17.0711C57.6725 18.4696 55.8907 19.422 53.9509 19.8079C52.0111 20.1937 50.0004 19.9957 48.1732 19.2388C46.3459 18.4819 44.7841 17.2002 43.6853 15.5557C42.5865 13.9112 42 11.9778 42 10C42 8.68678 42.2587 7.38642 42.7612 6.17317C43.2637 4.95991 44.0003 3.85752 44.9289 2.92893C45.8575 2.00035 46.9599 1.26375 48.1732 0.761205C49.3864 0.258658 50.6868 0 52 0ZM52 18C53.5822 18 55.129 17.5308 56.4446 16.6518C57.7602 15.7727 58.7855 14.5233 59.391 13.0615C59.9965 11.5997 60.155 9.99113 59.8463 8.43928C59.5376 6.88743 58.7757 5.46197 57.6568 4.34315C56.538 3.22433 55.1126 2.4624 53.5607 2.15372C52.0089 1.84504 50.4003 2.00346 48.9385 2.60896C47.4767 3.21447 46.2273 4.23984 45.3482 5.55544C44.4692 6.87103 44 8.41775 44 10C44 12.1217 44.8428 14.1566 46.3431 15.6569C47.8434 17.1571 49.8783 18 52 18Z" fill="#FFD233"/>
<path id="Vector_7" d="M51 9C53 9 53 8.37 53 8C53 7.63 52.3 7 51 7C49.7 7 49.61 7.64 49.6 8H47.6C47.6135 7.31875 47.8585 6.66241 48.2947 6.13896C48.731 5.61551 49.3324 5.25614 50 5.12V4H52V5.09C54 5.42 55 6.71 55 8C55 9.12 54.48 11 51 11C49 11 49 11.68 49 12C49 12.32 49.62 13 51 13C52.84 13 53 12.14 53 12H55C55 12.92 54.34 14.55 52 14.92V16H50V14.92C48 14.58 47 13.29 47 12C47 10.88 47.52 9 51 9Z" fill="#FFD233"/>
</g>
</g>
<defs>
<linearGradient id="paint0_linear_733_49" x1="32.5565" y1="30" x2="32.5565" y2="78.7459" gradientUnits="userSpaceOnUse">
<stop stop-color="#F589F7"/>
<stop offset="1" stop-color="#DC0DE1"/>
</linearGradient>
</defs>
</svg>