<svg width="64" height="64" viewBox="0 0 64 64" fill="none" xmlns="http://www.w3.org/2000/svg">
<path d="M1.90039 32C1.90039 45.1 10.3004 56.2 21.9004 60.3V3.70001C10.3004 7.80001 1.90039 18.9 1.90039 32Z" fill="#428BC1"/>
<path d="M61.9004 32C61.9004 18.9 53.6004 7.80001 41.9004 3.70001V60.3C53.6004 56.2 61.9004 45.1 61.9004 32" fill="#ED4C5C"/>
<path d="M21.9004 60.3C25.0004 61.4 28.4004 62 31.9004 62C35.4004 62 38.8004 61.4 41.9004 60.3V3.7C38.8004 2.6 35.5004 2 31.9004 2C28.3004 2 25.0004 2.6 21.9004 3.7V60.3" fill="white"/>
</svg>
