<svg width="64" height="64" viewBox="0 0 64 64" fill="none" xmlns="http://www.w3.org/2000/svg">
<path d="M31.8996 2C18.7996 2 7.69961 10.4 3.59961 22H60.1996C56.0996 10.4 44.9996 2 31.8996 2Z" fill="#3E4347"/>
<path d="M31.8996 62C44.9996 62 56.0996 53.7 60.1996 42H3.59961C7.69961 53.7 18.7996 62 31.8996 62V62Z" fill="#FFE62E"/>
<path d="M3.60039 22C2.50039 25.1 1.90039 28.5 1.90039 32C1.90039 35.5 2.50039 38.9 3.60039 42H60.2004C61.3004 38.9 61.9004 35.5 61.9004 32C61.9004 28.5 61.3004 25.1 60.2004 22H3.60039Z" fill="#ED4C5C"/>
</svg>
