<svg width="120" height="77" viewBox="0 0 120 77" fill="none" xmlns="http://www.w3.org/2000/svg">
<g id="New">
<g id="exvlamacion">
<path id="Vector" d="M103.015 27.3747C102.973 27.0745 103.019 26.7713 103.15 26.4847C103.281 26.1981 103.494 25.9344 103.775 25.7106C104.057 25.4869 104.4 25.308 104.783 25.1856C105.166 25.0632 105.581 25 106 25C106.419 25 106.834 25.0632 107.217 25.1856C107.6 25.308 107.943 25.4869 108.225 25.7106C108.506 25.9344 108.719 26.1981 108.85 26.4847C108.981 26.7713 109.027 27.0745 108.985 27.3747L107.821 41.085C107.776 41.4101 107.565 41.7116 107.228 41.9309C106.892 42.1502 106.454 42.2716 106 42.2716C105.546 42.2716 105.108 42.1502 104.772 41.9309C104.435 41.7116 104.224 41.4101 104.179 41.085L103.015 27.3747ZM103 46.5907C103 46.0181 103.316 45.4689 103.879 45.064C104.441 44.6591 105.204 44.4316 106 44.4316C106.796 44.4316 107.559 44.6591 108.121 45.064C108.684 45.4689 109 46.0181 109 46.5907C109 47.1634 108.684 47.7125 108.121 48.1175C107.559 48.5224 106.796 48.7498 106 48.7498C105.204 48.7498 104.441 48.5224 103.879 48.1175C103.316 47.7125 103 47.1634 103 46.5907Z" fill="url(#paint0_linear_753_107)"/>
</g>
<g id="W">
<path id="Vector_2" fill-rule="evenodd" clip-rule="evenodd" d="M71.6713 28.0273C71.4122 28.0705 71.1641 28.1643 70.9412 28.3033C70.7184 28.4424 70.5251 28.624 70.3724 28.8377C70.2198 29.0515 70.1107 29.2933 70.0515 29.5492C69.9923 29.8051 69.984 30.0702 70.0273 30.3293L74.0273 54.3293C74.095 54.7366 74.2872 55.113 74.5775 55.4068C74.8677 55.7005 75.2418 55.8973 75.6483 55.9699C76.0549 56.0425 76.4739 55.9876 76.8479 55.8125C77.2219 55.6375 77.5326 55.351 77.7373 54.9923L84.0003 44.0313L90.2633 54.9923C90.4679 55.351 90.7786 55.6375 91.1526 55.8125C91.5267 55.9876 91.9457 56.0425 92.3522 55.9699C92.7587 55.8973 93.1328 55.7005 93.4231 55.4068C93.7133 55.113 93.9055 54.7366 93.9733 54.3293L97.9733 30.3293C98.0605 29.806 97.9363 29.2695 97.628 28.8378C97.3197 28.4061 96.8525 28.1145 96.3293 28.0273C95.806 27.94 95.2695 28.0642 94.8378 28.3725C94.4061 28.6808 94.1145 29.148 94.0273 29.6713L90.9503 48.1313L85.7363 39.0083C85.5614 38.7021 85.3086 38.4477 85.0036 38.2707C84.6987 38.0937 84.3524 38.0005 83.9998 38.0005C83.6472 38.0005 83.3009 38.0937 82.9959 38.2707C82.691 38.4477 82.4382 38.7021 82.2633 39.0083L77.0493 48.1323L73.9733 29.6713C73.9301 29.4122 73.8363 29.1641 73.6972 28.9412C73.5582 28.7184 73.3766 28.5251 73.1628 28.3724C72.9491 28.2198 72.7073 28.1107 72.4514 28.0515C72.1955 27.9923 71.9304 27.984 71.6713 28.0273V28.0273Z" fill="url(#paint1_linear_753_107)"/>
</g>
<g id="N">
<path id="Vector_3" fill-rule="evenodd" clip-rule="evenodd" d="M21.3333 35.405V58.5C21.3333 59.163 21.1051 59.7989 20.6987 60.2678C20.2924 60.7366 19.7413 61 19.1667 61C18.592 61 18.0409 60.7366 17.6346 60.2678C17.2283 59.7989 17 59.163 17 58.5V28.5C17.0002 27.9864 17.1375 27.4853 17.3932 27.0649C17.6489 26.6445 18.0106 26.3252 18.4292 26.1504C18.8477 25.9756 19.3028 25.9537 19.7325 26.0879C20.1621 26.222 20.5456 26.5056 20.8307 26.9L38.6667 51.595V28.5C38.6667 27.837 38.8949 27.2011 39.3013 26.7322C39.7076 26.2634 40.2587 26 40.8333 26C41.408 26 41.9591 26.2634 42.3654 26.7322C42.7717 27.2011 43 27.837 43 28.5V58.5C42.9998 59.0136 42.8625 59.5147 42.6068 59.9351C42.3511 60.3555 41.9894 60.6748 41.5708 60.8496C41.1523 61.0244 40.6972 61.0463 40.2675 60.9121C39.8379 60.778 39.4544 60.4944 39.1693 60.1L21.3333 35.405Z" fill="url(#paint2_linear_753_107)"/>
</g>
<g id="E">
<path id="Vector_4" d="M66 19H51V41H66" stroke="url(#paint3_linear_753_107)" stroke-width="2" stroke-linecap="round" stroke-linejoin="round"/>
<path id="Vector_5" d="M51 30H63" stroke="url(#paint4_linear_753_107)" stroke-width="2" stroke-linecap="round" stroke-linejoin="round"/>
</g>
<g id="estrellas">
<path id="Vector_6" d="M9.97351 28.9921C9.94209 28.9149 9.88424 28.8471 9.80711 28.7971C9.72999 28.747 9.63696 28.7169 9.53951 28.7104L6.68901 28.5217L5.45551 26.2462C5.41623 26.1729 5.35233 26.1107 5.27154 26.067C5.19074 26.0233 5.09649 26 5.00018 26C4.90386 26 4.80958 26.0231 4.72873 26.0668C4.64787 26.1104 4.58389 26.1726 4.54451 26.2458L3.31101 28.5217L0.460513 28.7104C0.364741 28.7167 0.273182 28.7459 0.196791 28.7945C0.120399 28.843 0.0624096 28.9089 0.0297597 28.9842C-0.00289019 29.0595 -0.00881797 29.141 0.0126856 29.219C0.0341892 29.2971 0.0822135 29.3683 0.151013 29.4242L2.25751 31.1354L1.51251 33.8237C1.48989 33.9051 1.49714 33.9903 1.53332 34.0682C1.5695 34.1461 1.63295 34.2131 1.71541 34.2606C1.79788 34.3081 1.89557 34.3338 1.99581 34.3344C2.09604 34.3351 2.19419 34.3106 2.27751 34.2642L5.00001 32.7517L7.72251 34.2642C7.80768 34.3113 7.90812 34.3355 8.01033 34.3337C8.11254 34.3318 8.2116 34.3039 8.29421 34.2537C8.37682 34.2035 8.439 34.1335 8.4724 34.0529C8.50579 33.9724 8.5088 33.8853 8.48101 33.8033L7.56651 31.1367L9.83451 29.4358C9.98301 29.3242 10.0375 29.15 9.97351 28.9921V28.9921Z" fill="url(#paint5_diamond_753_107)" fill-opacity="0.1"/>
</g>
</g>
<defs>
<linearGradient id="paint0_linear_753_107" x1="106" y1="25" x2="106" y2="48.7498" gradientUnits="userSpaceOnUse">
<stop stop-color="#76C625"/>
<stop offset="1" stop-color="#D62C2C"/>
</linearGradient>
<linearGradient id="paint1_linear_753_107" x1="84.0003" y1="28" x2="84.0003" y2="56.0011" gradientUnits="userSpaceOnUse">
<stop stop-color="#F60505"/>
<stop offset="0.483052" stop-color="#DDD523" stop-opacity="0.976571"/>
<stop offset="1" stop-color="#14E4F1" stop-opacity="0.76"/>
</linearGradient>
<linearGradient id="paint2_linear_753_107" x1="30" y1="26" x2="30" y2="61" gradientUnits="userSpaceOnUse">
<stop stop-color="#E030E3"/>
<stop offset="1" stop-color="#E33030"/>
</linearGradient>
<linearGradient id="paint3_linear_753_107" x1="58.5" y1="19" x2="58.5" y2="41" gradientUnits="userSpaceOnUse">
<stop stop-color="#EFDA20"/>
<stop offset="1" stop-color="#3330C4"/>
</linearGradient>
<linearGradient id="paint4_linear_753_107" x1="57" y1="30" x2="57" y2="31" gradientUnits="userSpaceOnUse">
<stop stop-color="#EFDA20"/>
<stop offset="1" stop-color="#3330C4"/>
</linearGradient>
<radialGradient id="paint5_diamond_753_107" cx="0" cy="0" r="1" gradientUnits="userSpaceOnUse" gradientTransform="translate(4.99997 30.1672) rotate(90) scale(4.16722 4.99997)">
<stop stop-color="#E6D21F"/>
<stop offset="1" stop-color="#CD3521"/>
</radialGradient>
</defs>
</svg>
