<svg width="512" height="512" viewBox="0 0 512 512" fill="none" xmlns="http://www.w3.org/2000/svg">
<path d="M444.716 431.48L335.35 286.04V478.415L265.958 512V220.986L339.946 191.932L452.113 341.66V139.628L512 117.5V404.268L444.716 431.478V431.48ZM123.51 417.234L84.27 343.947V436.309L123.51 417.234V417.234ZM245.14 512V220.986L172.968 191.932V336.923L68.198 136.237L0 109.517V406.973L67.905 436.31V274.18L172.69 481.006L245.14 512ZM435.485 439.836L348.38 325.02V372.881L381.147 417.702L435.484 439.836H435.485ZM256.492 126.589L331.077 155.493L348.142 126.589V38.336L279.084 64.583L256.492 105.818V126.588V126.589ZM217.529 141.887L258.736 64.429L195.71 37.789L165.426 93.823L193.176 151.956L217.529 141.887V141.887ZM256.492 202.859L330.668 174.133L256.492 143.367L182.317 176.173L256.492 202.859ZM69.99 65.707L0 93.823L79.024 121.288L144.13 93.823L69.99 65.707ZM337.473 26.29L271.316 0L205.163 25.968L271.32 52.258L337.473 26.29V26.29ZM375.358 100.431L444.028 125.693L512 100.43L448.973 75.167L375.358 100.43V100.431ZM180.052 156.495L156.183 108.957L89.281 135.422L158.027 267.525V166.69L180.052 156.495ZM375.358 115.92L343.346 166.464L436.919 299.598V139.628L375.359 115.92H375.358Z" fill="#11CE46"/>
</svg>
