<svg width="308" height="268" viewBox="0 0 308 268" fill="none" xmlns="http://www.w3.org/2000/svg">
<path d="M103.468 176.88H75.1709C69.6606 176.88 65.1609 180.523 65.1609 185.004V190.51H185.834V185.004C185.834 180.544 181.311 176.88 175.8 176.88H146.781V162.873L235.716 162.894C243.248 162.894 249.432 157.513 249.432 150.959L249.456 23.5337C249.456 16.9594 243.272 11.5784 235.74 11.5784L15.3034 11.5366C7.74781 11.5366 1.56375 16.9175 1.56375 23.4709L1.51562 150.918C1.51562 157.492 7.69969 162.873 15.2553 162.873L103.95 162.894L103.468 176.88V176.88ZM218.848 203.366L34.4331 203.324C31.8584 203.324 29.3319 205.104 28.8266 207.302L16.9397 253.281C16.4344 255.458 19.37 256.359 21.9447 256.359L231.264 256.401C233.815 256.401 236.318 255.5 235.812 253.323L224.431 207.323C223.901 205.167 221.399 203.366 218.848 203.366V203.366Z" fill="#B0BEC5"/>
<path d="M45.0207 214.986L209.584 215.007C212.159 215.007 214.252 216.829 214.252 219.069C214.252 221.309 212.159 223.131 209.584 223.131L45.0207 223.11C42.4701 223.11 40.3526 221.288 40.3526 219.048C40.3526 216.787 42.4701 214.986 45.0207 214.986V214.986ZM214.06 242.708L40.5451 242.666C37.9704 242.666 35.877 240.844 35.877 238.604C35.877 236.363 37.9704 234.542 40.5451 234.542L214.06 234.584C216.61 234.584 218.704 236.405 218.704 238.646C218.728 240.886 216.634 242.708 214.06 242.708Z" fill="white"/>
<path d="M300.805 239.295C290.17 246.728 275.371 242.645 265.77 230.187C256.193 217.708 249.311 211.28 257.998 206.213C266.685 201.147 280.28 201.942 295.078 211.636C306.436 219.069 308.986 233.6 300.805 239.295V239.295Z" fill="#B0BEC5"/>
<path d="M103.469 163.312H146.782V169.594H103.469V163.312ZM16.9404 253.323H235.837V257.51H16.9404V253.323ZM300.854 239.295C300.854 239.295 290.266 247.858 275.997 239.316C262.715 231.359 255.255 215.824 254.606 214.337C254.534 214.379 261.8 217.122 267.936 221.854C271.594 224.659 278.355 232.469 285.743 236.489C291.927 239.86 298.953 239.839 300.854 239.295V239.295Z" fill="#78909C"/>
<path d="M122.502 26.2137L82.9434 141.558L21.6562 140.972V27.3653L122.502 26.2137Z" fill="#ECEFF1"/>
<path d="M216.562 39.7812V121.438H33.6875V39.7812H216.562ZM216.827 29.3125H33.3266C27.7681 29.3125 21.6562 33.4163 21.6562 38.3784V122.589C21.6562 127.572 27.7681 131.906 33.3266 131.906H216.803C222.337 131.906 228.594 127.572 228.594 122.589V38.3784C228.594 33.3953 222.891 29.3125 217.381 29.3125H216.827V29.3125Z" fill="#78909C"/>
</svg>
