<svg width="470" height="314" viewBox="0 0 470 314" fill="none" xmlns="http://www.w3.org/2000/svg">
<path d="M300.839 123.415H239.191C220.195 123.415 210.873 131.265 210.873 141.47V172.412C210.873 178.731 206.408 183.271 196.969 183.271H143.037C142.855 183.271 142.681 183.32 142.552 183.405C142.423 183.491 142.351 183.608 142.351 183.729V189.878C142.351 190.14 142.547 190.297 142.939 190.297H203.843C222.839 190.297 232.239 182.486 232.239 172.281V141.365C232.239 135.033 236.625 130.48 246.143 130.48H300.604C300.996 130.48 301.388 130.297 301.388 130.048V123.834C301.388 123.572 300.996 123.376 300.604 123.376L300.839 123.415ZM119.38 123.415H0.744167C0.313333 123.415 0 123.638 0 123.873V130.114C0 130.375 0.313333 130.585 0.744167 130.585H112.252C121.652 130.585 126.156 135.125 126.156 141.444C126.156 147.763 121.691 152.303 112.252 152.303H24.0483C10.34 152.303 0.0195833 159.97 0.0195833 170.162V189.957C0.0195833 190.219 0.41125 190.441 0.802917 190.441H20.9738C21.3654 190.441 21.7571 190.232 21.7571 189.957V170.162C21.7571 163.882 27.2404 159.434 35.0737 159.434H119.458C138.454 159.434 147.737 151.662 147.737 141.457C147.737 131.278 138.474 123.402 119.498 123.402L119.38 123.415ZM461.168 156.097C461.024 155.999 460.944 155.868 460.944 155.731C460.944 155.594 461.024 155.462 461.168 155.365C467.043 152.094 469.98 147.161 469.98 141.47C469.98 131.291 460.698 123.415 441.663 123.415H323.047C322.655 123.415 322.342 123.651 322.342 123.912V130.127C322.342 130.389 322.733 130.65 323.125 130.65H434.75C444.15 130.65 448.752 135.229 448.752 141.509C448.752 147.789 444.248 152.369 434.809 152.369H323.184C322.792 152.369 322.479 152.63 322.479 152.892V159.172C322.479 159.434 322.792 159.604 323.203 159.604H434.828C447.166 159.695 448.733 167.715 448.733 171.771V172.556C448.733 178.902 444.228 183.455 434.828 183.455H323.203C322.812 183.455 322.498 183.651 322.498 183.899V190.14C322.498 190.402 322.792 190.624 323.203 190.624H441.683C460.737 190.624 470 182.185 470 172.569V171.823C470 165.674 467.063 159.839 461.188 156.254L461.168 156.097Z" fill="url(#paint0_linear_947_8)"/>
<defs>
<linearGradient id="paint0_linear_947_8" x1="235" y1="123.376" x2="235" y2="190.624" gradientUnits="userSpaceOnUse">
<stop stop-color="#1EF2F2"/>
<stop offset="1" stop-color="#221EF2"/>
</linearGradient>
</defs>
</svg>
