<svg width="387" height="222" viewBox="0 0 387 222" fill="none" xmlns="http://www.w3.org/2000/svg">
<g clip-path="url(#clip0_947_12)">
<path d="M168.506 134.772C171.436 134.772 174.337 134.441 177.044 133.798C179.751 133.154 182.21 132.211 184.281 131.022C186.352 129.833 187.994 128.422 189.114 126.869C190.234 125.316 190.809 123.651 190.807 121.97V99.974C190.807 98.9613 191.155 97.9586 191.831 97.0232C192.507 96.0877 193.498 95.2379 194.747 94.5223C195.996 93.8067 197.478 93.2393 199.11 92.8526C200.741 92.4659 202.49 92.2675 204.255 92.2687H247.535C247.613 92.2676 247.69 92.2575 247.762 92.2392C247.833 92.2209 247.898 92.1946 247.952 92.162C248.006 92.1294 248.048 92.0909 248.076 92.0489C248.104 92.0069 248.117 91.9622 248.115 91.9172V87.5142C248.115 87.4259 248.054 87.3412 247.945 87.2788C247.836 87.2163 247.689 87.1812 247.535 87.1812H195.386C192.456 87.18 189.555 87.51 186.847 88.1524C184.14 88.7947 181.679 89.7368 179.607 90.9249C177.534 92.1129 175.89 93.5236 174.768 95.0763C173.647 96.629 173.069 98.2932 173.069 99.974V121.989C173.069 124.033 171.655 125.994 169.136 127.441C166.618 128.887 163.201 129.701 159.637 129.703H116.954C116.877 129.703 116.8 129.712 116.728 129.73C116.657 129.747 116.592 129.772 116.538 129.804C116.484 129.836 116.442 129.874 116.413 129.915C116.385 129.957 116.372 130.001 116.374 130.046V134.449C116.374 134.537 116.435 134.622 116.544 134.684C116.653 134.747 116.8 134.782 116.954 134.782L168.506 134.772ZM265.982 105.052V87.5142C265.982 87.4259 266.043 87.3412 266.152 87.2788C266.26 87.2163 266.408 87.1812 266.562 87.1812H384.404C384.559 87.1812 384.708 87.216 384.82 87.2782C384.931 87.3404 384.996 87.4251 385 87.5142V91.9172C385 92.0089 384.938 92.0969 384.827 92.1626C384.715 92.2282 384.563 92.2663 384.404 92.2687H284.267C284.191 92.2687 284.116 92.2774 284.045 92.2941C283.975 92.3108 283.911 92.3354 283.857 92.3663C283.803 92.3972 283.76 92.4339 283.731 92.4743C283.702 92.5147 283.687 92.558 283.687 92.6017V104.035C283.683 104.518 283.845 104.996 284.165 105.443C284.486 105.89 284.957 106.295 285.552 106.637C286.148 106.978 286.855 107.249 287.634 107.432C288.412 107.616 289.247 107.709 290.088 107.707H364.618C370.634 107.909 376.289 109.422 380.424 111.937C384.559 114.452 386.862 117.778 386.862 121.235C386.862 124.692 384.559 128.018 380.424 130.533C376.289 133.048 370.634 134.561 364.618 134.763H266.578C266.501 134.764 266.423 134.757 266.351 134.741C266.279 134.724 266.213 134.7 266.157 134.669C266.102 134.638 266.057 134.601 266.027 134.56C265.997 134.519 265.982 134.475 265.982 134.43V130.046C265.979 130.001 265.993 129.957 266.021 129.915C266.049 129.874 266.092 129.836 266.146 129.804C266.2 129.772 266.265 129.747 266.336 129.73C266.408 129.712 266.484 129.703 266.562 129.703H355.733C357.729 129.752 359.721 129.569 361.59 129.163C363.458 128.758 365.164 128.139 366.604 127.345C368.043 126.551 369.187 125.597 369.966 124.542C370.745 123.487 371.143 122.352 371.135 121.206C371.127 120.06 370.715 118.927 369.922 117.875C369.129 116.823 367.972 115.875 366.522 115.087C365.072 114.299 363.358 113.688 361.484 113.29C359.61 112.893 357.616 112.718 355.62 112.776H279.414C277.647 112.776 275.898 112.576 274.266 112.188C272.634 111.799 271.152 111.23 269.904 110.513C268.657 109.795 267.668 108.944 266.995 108.007C266.322 107.07 265.977 106.066 265.982 105.052V105.052ZM91.0899 107.707C94.6608 107.707 98.0855 106.893 100.611 105.445C103.136 103.996 104.554 102.032 104.554 99.9832C104.554 97.9348 103.136 95.9702 100.611 94.5217C98.0855 93.0732 94.6608 92.2595 91.0899 92.2595H0.596351C0.440871 92.2595 0.29151 92.2247 0.180074 92.1625C0.0686369 92.1003 0.00392813 92.0157 -0.000274028 91.9265V87.5235C-0.000303975 87.479 0.0152283 87.4349 0.0454043 87.3939C0.0755804 87.3529 0.119787 87.3157 0.175411 87.2847C0.231035 87.2537 0.296947 87.2293 0.369248 87.2131C0.441549 87.197 0.518773 87.1893 0.596351 87.1905H99.7974C105.61 87.2801 111.133 88.6678 115.189 91.058C119.245 93.4482 121.515 96.6522 121.515 99.9879C121.515 103.324 119.245 106.528 115.189 108.918C111.133 111.308 105.61 112.696 99.7974 112.785H31.1694C29.4041 112.785 27.6561 112.985 26.0254 113.373C24.3947 113.76 22.9132 114.329 21.6657 115.045C20.4182 115.762 19.4291 116.612 18.7551 117.548C18.081 118.484 17.7351 119.487 17.7372 120.5V134.495C17.7373 134.54 17.7217 134.584 17.6915 134.625C17.6614 134.666 17.6172 134.703 17.5615 134.734C17.5059 134.765 17.44 134.789 17.3677 134.805C17.2954 134.822 17.2182 134.829 17.1406 134.828H0.596351C0.513031 134.83 0.430077 134.821 0.353133 134.803C0.276189 134.784 0.20706 134.756 0.150449 134.721C0.0938384 134.686 0.0510741 134.645 0.0250655 134.599C-0.000942986 134.554 -0.0095855 134.506 -0.000274028 134.458V120.463C0.0210672 117.076 2.38225 113.833 6.56565 111.444C10.749 109.054 16.4133 107.714 22.3167 107.716L91.0899 107.707Z" fill="url(#paint0_linear_947_12)"/>
</g>
<defs>
<linearGradient id="paint0_linear_947_12" x1="193.429" y1="87.1812" x2="193.429" y2="134.828" gradientUnits="userSpaceOnUse">
<stop stop-color="#1EF2F2"/>
<stop offset="1" stop-color="#1E33F2"/>
</linearGradient>
<clipPath id="clip0_947_12">
<rect width="387" height="222" fill="white"/>
</clipPath>
</defs>
</svg>
