<svg width="416" height="286" viewBox="0 0 416 286" fill="none" xmlns="http://www.w3.org/2000/svg">
<g clip-path="url(#clip0_947_10)">
<path d="M213.291 157.059V128.611C213.291 122.792 217.204 118.645 225.615 118.645H277.472C277.732 118.645 278.083 118.458 278.083 118.225V112.541C278.083 112.496 278.083 112.461 278.018 112.407H214.578C200.837 113.613 194.129 120.227 194.129 128.602V157.05C194.129 162.77 190.073 166.961 181.805 166.961H127.166C126.815 166.961 126.555 167.095 126.555 167.381V173.057C126.555 173.298 126.698 173.486 126.88 173.522H189.033C205.218 173.2 213.213 166.121 213.213 157.005L213.291 157.059ZM0.403 173.575H18.616C18.7663 173.538 18.8948 173.468 18.9817 173.376C19.0687 173.284 19.1092 173.175 19.097 173.066V154.967C19.097 149.149 23.829 145.145 30.797 145.145H105.768C122.616 145.145 130.819 138.022 130.819 128.664C130.819 120.236 124.111 113.676 110.37 112.469H0.143C0.143 112.505 0 112.55 0 112.604V118.288C0 118.565 0.208 118.708 0.611 118.708H99.398C107.809 118.708 111.722 122.855 111.722 128.62C111.722 134.384 107.809 138.585 99.398 138.585H21.281C9.152 138.585 0.013 145.663 0.013 154.967V173.066C0.013 173.307 0.221 173.495 0.481 173.53L0.403 173.575ZM277.732 167.024H377.273C377.533 167.024 377.806 167.158 377.806 167.301V173.066C377.806 173.352 378.066 173.495 378.339 173.495H396.279C396.63 173.495 396.955 173.352 396.955 173.066V167.39C396.955 167.149 397.306 166.97 397.631 166.97H415.454C415.857 166.97 416.065 166.729 416.065 166.55V160.768C416.065 160.544 415.922 160.303 415.454 160.303H397.631C397.306 160.303 396.955 160.124 396.955 159.937V118.645C396.955 115.294 395.2 113.149 392.08 112.416H386.932C385.092 112.794 383.324 113.322 381.667 113.989L274.547 159.472C270.348 161.286 268.931 163.288 269.932 164.772C270.751 166.032 273.195 166.961 277.784 166.961L277.732 167.024ZM293.319 159.436L376.324 124.106C376.857 123.829 377.884 123.918 377.884 124.714V159.999C377.884 160.223 377.611 160.419 377.351 160.419H293.787C293.111 160.419 292.786 160.276 292.708 160.142C292.565 159.856 292.773 159.633 293.319 159.436Z" fill="url(#paint0_linear_947_10)"/>
</g>
<defs>
<linearGradient id="paint0_linear_947_10" x1="208.033" y1="112.407" x2="208.033" y2="173.575" gradientUnits="userSpaceOnUse">
<stop stop-color="#1EBFF2"/>
<stop offset="1" stop-color="#221EF2"/>
</linearGradient>
<clipPath id="clip0_947_10">
<rect width="416" height="286" fill="white"/>
</clipPath>
</defs>
</svg>
