<svg width="511" height="400" viewBox="0 0 511 400" fill="none" xmlns="http://www.w3.org/2000/svg">
<path d="M506.46 305.976C496.464 318.764 472 327.862 472 327.862L290.084 394.101V345.247L423.966 296.911C439.168 291.407 441.499 283.573 429.14 279.493C416.812 275.382 394.487 276.58 379.317 282.083L290.084 313.94V263.241L295.226 261.493C295.226 261.493 320.999 252.234 357.248 248.154C393.497 244.107 437.891 248.705 472.734 262.076C512.018 274.702 516.425 293.22 506.46 305.976ZM307.394 222.837V97.8696C307.394 83.2037 304.743 69.7034 291.17 65.8831C280.758 62.4837 274.307 72.2934 274.307 86.9269V399.799L191.078 373.025V0C226.464 6.66925 278.011 22.4035 305.733 31.8894C376.219 56.3972 400.108 86.9269 400.108 155.724C400.108 222.772 359.292 248.187 307.394 222.805V222.837ZM38.3524 340.197C-1.95268 328.606 -8.65956 304.649 9.7045 290.857C26.6953 278.101 55.5668 268.518 55.5668 268.518L174.917 225.459V274.508L89.0053 305.685C73.8669 311.189 71.5355 318.991 83.8634 323.102C96.1913 327.182 118.516 326.016 133.686 320.512L174.885 305.329V349.229L166.677 350.621C123.696 357.675 79.6699 354.088 38.3524 340.164V340.197Z" fill="#F32121"/>
</svg>
