<svg width="326" height="374" viewBox="0 0 326 374" fill="none"
                                            xmlns="http://www.w3.org/2000/svg">
                                            <path
                                                d="M289.227 296.804C315.479 326.647 325.196 371.79 325.196 371.79L76.1035 88.6122L90.9157 71.3256C90.9159 71.3564 262.976 266.96 289.227 296.804Z"
                                                fill="#82AEC0" />
                                            <path
                                                d="M259.629 331.346C285.881 361.189 325.196 371.79 325.196 371.79L76.1035 88.6122L61.2913 105.899L259.629 331.346Z"
                                                fill="#C9E3E6" />
                                            <path
                                                d="M70.9131 82.7415L59.3072 96.2863L19.1051 43.7153L23.2515 28.5276L36.3815 23.5528L82.5456 69.1659L70.9131 82.7415Z"
                                                fill="#874D36" />
                                            <path
                                                d="M70.9129 82.7416L59.2805 96.3172L19.0784 43.7463C19.0784 43.7463 15.2227 37.9284 23.225 28.5894C31.2273 19.2503 36.3283 23.6147 36.3283 23.6147L82.5454 69.1659L70.9129 82.7416Z"
                                                fill="#693928" />
                                            <path
                                                d="M35.042 35.1551C35.6797 34.6897 38.1004 33.3208 41.1097 36.2535C42.8024 37.9031 43.0012 39.747 41.1143 41.0815C36.9685 44.0299 31.6788 51.7215 29.4174 57.0563L23.7895 49.6816C26.6628 44.0046 30.2849 38.538 35.042 35.1551ZM46.7598 51.1623C47.3975 50.6969 50.3493 48.8941 52.6019 50.4171C55.793 52.5798 55.2504 55.351 53.3634 56.6856C49.2176 59.6339 43.3106 66.8375 40.727 71.8976L35.207 64.676C38.5349 59.119 42.1356 54.4521 46.7598 51.1623ZM61.2524 62.7848C61.8901 62.3193 64.4213 61.5341 66.9977 63.5778C68.6617 64.92 69.2421 67.9607 67.3552 69.2953C62.5979 72.6474 55.6581 81.1493 52.4667 87.1667L46.9735 79.9756C50.9346 73.246 56.7878 65.9812 61.2524 62.7848Z"
                                                fill="#A65F3E" />
                                            <path
                                                d="M37.3871 14.0131L36.3811 23.5527C36.3811 23.5527 32.2428 23.5489 25.6449 31.249C19.047 38.9491 19.1047 43.7152 19.1047 43.7152L10.8365 44.999C4.7575 46.2686 -0.515893 40.0294 0.293096 33.0434C1.07818 26.4881 4.20703 19.0566 9.47986 12.8719C14.7529 6.71803 21.1632 3.01692 26.8702 2.02655C32.8974 1.00336 38.116 7.02761 37.3871 14.0131ZM123.277 38.8566L95.5012 78.5225L81.537 94.8195L67.5727 111.117L33.5031 143.627C31.8582 145.237 29.428 145.13 27.8682 143.387C26.3081 141.614 26.2093 138.724 27.6653 136.808C35.0252 127.227 49.8461 107.172 56.4938 98.9184C61.155 93.1068 66.03 87.3245 70.4288 82.2218C74.8009 77.1193 79.7832 71.4286 84.7403 65.9533C91.8183 58.1886 109.033 40.8557 117.254 32.2532C118.898 30.5512 121.381 30.6273 122.968 32.4006C124.555 34.1432 124.653 36.941 123.277 38.8566Z"
                                                fill="#9E740B" />
                                            <path
                                                d="M37.4186 298.439C11.5569 328.621 2.4263 373.885 2.4263 373.885L247.821 87.4973L232.785 70.4045C232.786 70.4353 63.2803 268.257 37.4186 298.439Z"
                                                fill="#82AEC0" />
                                            <path
                                                d="M67.4625 332.594C41.6009 362.776 2.42634 373.885 2.42634 373.885L247.821 87.4973L262.856 104.59L67.4625 332.594Z"
                                                fill="#C9E3E6" />
                                            <path
                                                d="M252.935 81.5597L264.716 94.9527L304.232 41.8641L299.889 26.7315L286.695 21.9276L241.128 68.1363L252.935 81.5597Z"
                                                fill="#874D36" />
                                            <path
                                                d="M252.935 81.5597L264.743 94.9832L304.232 41.864C304.232 41.864 308.308 36.3329 299.889 26.7622C291.47 17.1915 286.722 21.9581 286.722 21.9581L241.155 68.1668L252.935 81.5597Z"
                                                fill="#693928" />
                                            <path
                                                d="M285.566 12.4018L286.695 21.9276C286.695 21.9276 290.833 21.87 297.531 29.4837C304.228 37.0975 304.232 41.8641 304.232 41.8641L312.516 43.0403C318.582 43.8927 323.803 37.9237 322.904 30.9488C322.033 24.4043 318.808 17.014 313.456 10.8984C308.103 4.81344 301.645 1.19589 295.926 0.27971C289.886 -0.665132 284.746 5.42638 285.566 12.4018ZM200.005 38.3585L228.294 77.6605L242.469 93.7748L256.643 109.889L291.132 141.955C292.798 143.543 295.227 143.404 296.764 141.641C298.301 139.848 298.362 136.957 296.881 135.06C289.397 125.575 274.317 105.715 267.563 97.5481C262.827 91.7974 257.877 86.0789 253.412 81.0339C248.974 75.9886 243.919 70.363 238.891 64.9526C231.713 57.2804 214.274 40.1725 205.943 31.6775C204.276 29.997 201.794 30.1054 200.23 31.8991C198.667 33.6622 198.605 36.461 200.005 38.3585Z"
                                                fill="#9E740B" />
                                            <path
                                                d="M318.857 32.6049C317.631 27.2953 314.916 22.5987 311.134 19.2471C305.763 14.4232 302.69 18.1334 305.129 23.7144C307.107 28.1914 308.59 30.4266 311.539 36.3734C314.325 41.9829 320.204 38.6235 318.857 32.6049ZM286.455 128.7C288.771 131.791 285.174 132.891 279.746 127.637C274.319 122.383 251.481 100.205 251.481 100.205C244.144 92.626 247.777 84.7299 247.777 84.7299C253.712 90.0729 284.138 125.609 286.455 128.7Z"
                                                fill="#E2A610" />
                                            <path
                                                d="M288.292 33.5107C287.648 33.0536 285.21 31.7163 282.239 34.6878C280.568 36.3593 280.393 38.2055 282.297 39.5155C286.481 42.4098 291.87 50.0321 294.2 55.3371L299.732 47.8899C296.759 42.2508 293.092 36.8315 288.292 33.5107ZM276.756 49.6689C276.112 49.2118 273.137 47.4475 270.905 48.9996C267.742 51.2036 268.321 53.9675 270.225 55.2775C274.409 58.1718 280.409 65.298 283.058 70.3242L288.483 63.0314C285.11 57.518 281.423 52.8983 276.756 49.6689ZM262.442 61.4784C261.799 61.0213 259.257 60.269 256.708 62.3459C255.061 63.7097 254.521 66.7577 256.425 68.0677C261.225 71.3577 268.275 79.7688 271.544 85.7442L276.943 78.4824C272.895 71.8047 266.948 64.6166 262.442 61.4784Z"
                                                fill="#A65F3E" />
                                            <path
                                                d="M162.381 152.601L147.4 135.538L122.67 175.646L132.784 187.143L162.381 152.601Z"
                                                fill="#2F7889" />
                                            <path
                                                d="M59.9852 114.333C64.9731 109.504 56.0194 107.994 49.8193 115.291L37.3648 129.733C34.265 133.413 34.3057 139.686 40.0651 134.421L59.9852 114.333ZM15.42 31.254C17.188 28.0443 16.3932 24.882 13.483 24.8701C11.4004 24.8529 9.16941 26.651 8.136 27.8571C6.62563 29.6197 5.54023 31.0414 4.81606 34.6441C3.85961 39.4783 8.4297 44.3075 11.0693 39.6468C13.4186 35.5108 13.6519 34.4329 15.42 31.254Z"
                                                fill="#E2A610" />
                                            <path fill-rule="evenodd" clip-rule="evenodd"
                                                d="M162.151 332.842C183.481 333.057 247.565 259.391 247.499 223.212L247.33 131.12C225.896 131.098 226.049 123.02 226.03 112.509L97.623 111.216C97.6422 121.681 97.2537 129.797 76.229 129.396L76.3974 221.488C76.4636 257.668 140.528 332.624 162.151 332.842Z"
                                                fill="url(#paint0_radial_910_2)" stroke="black" stroke-width="12" />
                                            <path fill-rule="evenodd" clip-rule="evenodd"
                                                d="M162.151 332.842C183.481 333.057 247.565 259.391 247.499 223.212L247.33 131.12C225.896 131.098 226.049 123.02 226.03 112.509L97.623 111.216C97.6422 121.681 97.2537 129.797 76.229 129.396L76.3974 221.488C76.4636 257.668 140.528 332.624 162.151 332.842Z"
                                                fill="url(#paint1_radial_910_2)" stroke="#4F4F4F" stroke-width="10" />
                                            <path fill-rule="evenodd" clip-rule="evenodd"
                                                d="M162.151 332.842C183.481 333.057 247.565 259.391 247.499 223.212L247.33 131.12C225.896 131.098 226.049 123.02 226.03 112.509L97.623 111.216C97.6422 121.681 97.2537 129.797 76.229 129.396L76.3974 221.488C76.4636 257.668 140.528 332.624 162.151 332.842Z"
                                                fill="url(#paint2_radial_910_2)" stroke="#777777" stroke-width="8" />
                                            <path fill-rule="evenodd" clip-rule="evenodd"
                                                d="M162.151 332.842C183.481 333.057 247.565 259.391 247.499 223.212L247.33 131.12C225.896 131.098 226.049 123.02 226.03 112.509L97.623 111.216C97.6422 121.681 97.2537 129.797 76.229 129.396L76.3974 221.488C76.4636 257.668 140.528 332.624 162.151 332.842Z"
                                                stroke="#777777" stroke-width="6" />
                                            <path fill-rule="evenodd" clip-rule="evenodd"
                                                d="M162.151 332.842C183.481 333.057 247.565 259.391 247.499 223.212L247.33 131.12C225.896 131.098 226.049 123.02 226.03 112.509L97.623 111.216C97.6422 121.681 97.2537 129.797 76.229 129.396L76.3974 221.488C76.4636 257.668 140.528 332.624 162.151 332.842Z"
                                                stroke="#898989" stroke-width="4" />
                                            <path fill-rule="evenodd" clip-rule="evenodd"
                                                d="M162.151 332.842C183.481 333.057 247.565 259.391 247.499 223.212L247.33 131.12C225.896 131.098 226.049 123.02 226.03 112.509L97.623 111.216C97.6422 121.681 97.2537 129.797 76.229 129.396L76.3974 221.488C76.4636 257.668 140.528 332.624 162.151 332.842Z"
                                                stroke="#B7B7B7" stroke-width="2" />
                                            <path fill-rule="evenodd" clip-rule="evenodd"
                                                d="M162.151 332.842C183.481 333.057 247.565 259.391 247.499 223.212L247.33 131.12C225.896 131.098 226.049 123.02 226.03 112.509L97.623 111.216C97.6422 121.681 97.2537 129.797 76.229 129.396L76.3974 221.488C76.4636 257.668 140.528 332.624 162.151 332.842Z"
                                                stroke="#D8D8D8" />
                                            <path
                                                d="M106.076 120.544C107.434 120.553 108.533 119.612 108.53 118.442C108.528 117.272 107.426 116.317 106.068 116.307C104.71 116.298 103.611 117.239 103.613 118.409C103.615 119.579 104.718 120.535 106.076 120.544Z"
                                                fill="url(#paint3_radial_910_2)" stroke="black" stroke-width="0.5"
                                                stroke-linecap="round" stroke-linejoin="round" />
                                            <path
                                                d="M216.869 120.653C218.227 120.663 219.325 119.722 219.323 118.552C219.321 117.382 218.219 116.426 216.861 116.417C215.503 116.407 214.404 117.348 214.406 118.518C214.408 119.688 215.511 120.644 216.869 120.653Z"
                                                fill="url(#paint4_radial_910_2)" stroke="black" stroke-width="0.5"
                                                stroke-linecap="round" stroke-linejoin="round" />
                                            <path
                                                d="M84.5054 138.498C85.8632 138.507 86.9622 137.566 86.96 136.396C86.9579 135.226 85.8554 134.27 84.4976 134.261C83.1398 134.252 82.0408 135.193 82.043 136.363C82.0452 137.533 83.1476 138.489 84.5054 138.498Z"
                                                fill="url(#paint5_radial_910_2)" stroke="black" stroke-width="0.5"
                                                stroke-linecap="round" stroke-linejoin="round" />
                                            <path
                                                d="M237.954 138.649C239.311 138.658 240.41 137.717 240.408 136.547C240.406 135.377 239.304 134.422 237.946 134.412C236.588 134.403 235.489 135.344 235.491 136.514C235.493 137.684 236.596 138.64 237.954 138.649Z"
                                                fill="url(#paint6_radial_910_2)" stroke="black" stroke-width="0.5"
                                                stroke-linecap="round" stroke-linejoin="round" />
                                            <path
                                                d="M162.041 328.043C163.398 328.052 164.497 327.111 164.495 325.941C164.493 324.772 163.391 323.816 162.033 323.806C160.675 323.797 159.576 324.738 159.578 325.908C159.58 327.078 160.683 328.034 162.041 328.043Z"
                                                fill="url(#paint7_radial_910_2)" stroke="black" stroke-width="0.5"
                                                stroke-linecap="round" stroke-linejoin="round" />
                                            <path
                                                d="M84.5836 229.602C85.9414 229.612 87.0403 228.671 87.0382 227.501C87.036 226.331 85.9335 225.375 84.5757 225.366C83.2179 225.356 82.1189 226.297 82.1211 227.467C82.1233 228.637 83.2258 229.593 84.5836 229.602Z"
                                                fill="url(#paint8_radial_910_2)" stroke="black" stroke-width="0.5"
                                                stroke-linecap="round" stroke-linejoin="round" />
                                            <path
                                                d="M238.032 229.754C239.39 229.763 240.489 228.822 240.486 227.652C240.484 226.482 239.382 225.526 238.024 225.517C236.666 225.508 235.567 226.449 235.569 227.619C235.572 228.789 236.674 229.745 238.032 229.754Z"
                                                fill="url(#paint9_radial_910_2)" stroke="black" stroke-width="0.5"
                                                stroke-linecap="round" stroke-linejoin="round" />
                                            <path
                                                d="M160.941 164.035C155.747 172.032 148.61 184.562 148.732 192.028C148.829 198.364 155.645 208.421 158.227 220.715L156.097 220.694C153.568 207.079 143.011 189.676 133.474 192.725C122.206 196.329 123.225 209.482 127.502 217.389C129.809 213.217 132.465 208.281 138.811 208.592C144.8 208.889 147.765 214.541 149.853 220.631C148.162 220.614 146.804 221.904 146.807 223.526C146.81 225.148 148.172 226.466 149.864 226.483L151.136 226.496C151.557 230.789 150.921 235.072 148.554 235.797C145.486 236.738 143.682 234.738 141.756 231.277C140.532 234.691 139.288 244.381 146.06 246.374C152.54 248.281 156.542 240.601 156.677 226.552L159.089 226.576C159.165 227.568 159.208 228.571 159.213 229.587C159.231 237.337 155.536 242.523 155.425 245.776C155.311 249.061 158.56 252.882 161.124 254.971C163.654 252.933 166.883 249.177 166.757 245.89C166.634 242.635 162.92 237.374 162.91 229.624C162.911 228.609 162.95 227.606 163.022 226.615L165.247 226.638C165.434 240.69 169.474 248.451 175.945 246.675C182.708 244.818 181.423 235.103 180.187 231.664C178.273 235.086 176.476 237.05 173.405 236.048C171.035 235.274 170.384 230.979 170.789 226.694L172.28 226.709C173.969 226.726 175.329 225.435 175.326 223.813C175.323 222.191 173.959 220.874 172.269 220.857L172.05 220.854C174.116 214.806 177.067 209.213 183.056 209.037C189.4 208.854 192.068 213.843 194.389 218.062C198.637 210.241 199.617 197.108 188.336 193.277C178.786 190.036 168.286 207.227 165.807 220.792L163.863 220.772C166.4 208.529 173.179 198.609 173.253 192.275C173.348 184.811 166.165 172.138 160.941 164.035Z"
                                                fill="#EAAB00" stroke="#AE7500" stroke-width="12" />
                                            <path
                                                d="M160.941 163.973C155.747 171.97 148.61 184.499 148.732 191.966C148.829 198.302 155.645 208.359 158.227 220.653L156.097 220.632C153.568 207.016 143.011 189.613 133.474 192.663C122.206 196.266 123.225 209.42 127.502 217.327C129.809 213.154 132.465 208.219 138.811 208.529C144.8 208.826 147.765 214.479 149.853 220.569C148.162 220.552 146.804 221.842 146.807 223.464C146.81 225.086 148.172 226.404 149.864 226.421L151.136 226.434C151.557 230.727 150.921 235.01 148.554 235.735C145.486 236.675 143.682 234.675 141.756 231.215C140.532 234.629 139.288 244.319 146.06 246.312C152.54 248.219 156.542 240.539 156.677 226.489L159.089 226.514C159.165 227.505 159.208 228.509 159.213 229.525C159.231 237.275 155.536 242.461 155.425 245.714C155.311 248.998 158.56 252.82 161.124 254.909C163.654 252.871 166.883 249.115 166.757 245.828C166.634 242.573 162.92 237.312 162.91 229.562C162.911 228.546 162.95 227.543 163.022 226.553L165.247 226.576C165.434 240.628 169.474 248.389 175.945 246.613C182.708 244.756 181.423 235.041 180.187 231.602C178.273 235.024 176.476 236.987 173.405 235.985C171.035 235.212 170.384 230.916 170.789 226.631L172.28 226.646C173.969 226.663 175.329 225.373 175.326 223.751C175.323 222.129 173.959 220.811 172.269 220.794L172.05 220.792C174.116 214.744 177.067 209.151 183.056 208.975C189.4 208.792 192.068 213.781 194.389 218C198.637 210.179 199.617 197.046 188.336 193.215C178.786 189.973 168.286 207.165 165.807 220.729L163.863 220.71C166.4 208.467 173.179 198.547 173.253 192.213C173.348 184.749 166.165 172.075 160.941 163.973Z"
                                                fill="#EAAB00" stroke="#D58F00" stroke-width="10" />
                                            <path
                                                d="M160.941 163.91C155.747 171.907 148.61 184.437 148.732 191.903C148.829 198.239 155.645 208.296 158.227 220.59L156.097 220.569C153.568 206.954 143.011 189.551 133.474 192.6C122.206 196.204 123.225 209.357 127.502 217.264C129.809 213.092 132.465 208.156 138.811 208.467C144.8 208.764 147.765 214.416 149.853 220.506C148.162 220.489 146.804 221.779 146.807 223.401C146.81 225.023 148.172 226.341 149.864 226.358L151.136 226.371C151.557 230.664 150.921 234.947 148.554 235.672C145.486 236.613 143.682 234.613 141.756 231.152C140.532 234.566 139.288 244.256 146.06 246.249C152.54 248.156 156.542 240.476 156.677 226.427L159.089 226.451C159.165 227.443 159.208 228.446 159.213 229.462C159.231 237.212 155.536 242.398 155.425 245.651C155.311 248.936 158.56 252.757 161.124 254.846C163.654 252.808 166.883 249.052 166.757 245.765C166.634 242.51 162.92 237.249 162.91 229.499C162.91 228.484 162.95 227.481 163.022 226.49L165.247 226.513C165.434 240.565 169.474 248.326 175.945 246.55C182.708 244.693 181.423 234.978 180.187 231.539C178.273 234.961 176.476 236.925 173.405 235.923C171.035 235.149 170.384 230.854 170.789 226.569L172.28 226.584C173.969 226.601 175.329 225.31 175.326 223.688C175.323 222.066 173.959 220.749 172.269 220.732L172.05 220.729C174.116 214.681 177.067 209.088 183.056 208.912C189.4 208.729 192.068 213.718 194.389 217.937C198.637 210.116 199.617 196.983 188.336 193.152C178.786 189.911 168.286 207.102 165.807 220.667L163.863 220.647C166.4 208.404 173.179 198.484 173.253 192.15C173.348 184.686 166.165 172.013 160.941 163.91Z"
                                                fill="#EAAB00" stroke="#FFAD06" stroke-width="8" />
                                            <path
                                                d="M160.94 163.848C155.746 171.845 148.609 184.374 148.731 191.841C148.828 198.177 155.644 208.233 158.226 220.528L156.096 220.506C153.567 206.891 143.01 189.488 133.474 192.537C122.205 196.141 123.224 209.295 127.501 217.201C129.808 213.029 132.464 208.094 138.81 208.404C144.799 208.701 147.764 214.354 149.852 220.443C148.161 220.426 146.803 221.717 146.806 223.339C146.809 224.961 148.171 226.278 149.863 226.296L151.135 226.308C151.556 230.602 150.92 234.884 148.553 235.61C145.485 236.55 143.681 234.55 141.755 231.09C140.531 234.504 139.287 244.194 146.059 246.187C152.539 248.093 156.541 240.413 156.676 226.364L159.088 226.388C159.164 227.38 159.207 228.384 159.212 229.399C159.23 237.15 155.535 242.336 155.424 245.588C155.31 248.873 158.559 252.695 161.123 254.784C163.653 252.746 166.882 248.99 166.756 245.703C166.633 242.447 162.919 237.187 162.909 229.437C162.91 228.421 162.949 227.418 163.021 226.428L165.246 226.45C165.434 240.503 169.473 248.264 175.944 246.488C182.707 244.631 181.422 234.915 180.186 231.477C178.272 234.898 176.475 236.862 173.404 235.86C171.034 235.087 170.383 230.791 170.788 226.506L172.279 226.521C173.968 226.538 175.328 225.248 175.325 223.626C175.322 222.004 173.958 220.686 172.268 220.669L172.049 220.667C174.115 214.619 177.066 209.026 183.055 208.85C189.399 208.667 192.067 213.656 194.388 217.875C198.636 210.054 199.616 196.92 188.335 193.09C178.785 189.848 168.285 207.039 165.806 220.604L163.862 220.584C166.399 208.342 173.178 198.422 173.252 192.087C173.347 184.624 166.164 171.95 160.94 163.848Z"
                                                fill="#EAAB00" stroke="#FFBC33" stroke-width="6" />
                                            <path
                                                d="M160.94 163.785C155.746 171.782 148.609 184.312 148.731 191.778C148.828 198.114 155.644 208.171 158.226 220.466L156.096 220.444C153.567 206.829 143.01 189.426 133.474 192.475C122.205 196.079 123.224 209.233 127.501 217.139C129.808 212.967 132.464 208.031 138.81 208.342C144.799 208.639 147.764 214.291 149.852 220.381C148.161 220.364 146.803 221.655 146.806 223.277C146.809 224.899 148.171 226.216 149.863 226.233L151.135 226.246C151.556 230.539 150.92 234.822 148.553 235.548C145.485 236.488 143.681 234.488 141.755 231.027C140.531 234.441 139.287 244.131 146.059 246.125C152.539 248.031 156.541 240.351 156.676 226.302L159.088 226.326C159.164 227.318 159.207 228.322 159.212 229.337C159.23 237.087 155.535 242.273 155.424 245.526C155.31 248.811 158.559 252.632 161.123 254.721C163.653 252.684 166.882 248.927 166.756 245.64C166.633 242.385 162.919 237.124 162.909 229.374C162.91 228.359 162.949 227.356 163.021 226.366L165.246 226.388C165.434 240.441 169.473 248.202 175.944 246.425C182.707 244.568 181.422 234.853 180.186 231.414C178.272 234.836 176.475 236.8 173.404 235.798C171.034 235.025 170.383 230.729 170.788 226.444L172.279 226.459C173.968 226.476 175.328 225.186 175.325 223.564C175.322 221.942 173.958 220.624 172.268 220.607L172.049 220.605C174.115 214.557 177.066 208.964 183.055 208.787C189.399 208.605 192.067 213.594 194.388 217.812C198.636 209.992 199.616 196.858 188.335 193.027C178.785 189.786 168.285 206.977 165.806 220.542L163.862 220.522C166.399 208.279 173.178 198.359 173.252 192.025C173.347 184.561 166.164 171.888 160.94 163.785Z"
                                                fill="#EAAB00" stroke="#FFCA5D" stroke-width="4" />
                                            <path
                                                d="M160.94 163.722C155.746 171.719 148.609 184.249 148.731 191.715C148.828 198.051 155.644 208.108 158.226 220.402L156.096 220.381C153.567 206.766 143.01 189.363 133.474 192.412C122.205 196.016 123.224 209.169 127.501 217.076C129.808 212.904 132.464 207.968 138.81 208.279C144.799 208.576 147.764 214.228 149.852 220.318C148.161 220.301 146.803 221.591 146.806 223.213C146.809 224.835 148.171 226.153 149.863 226.17L151.135 226.183C151.556 230.476 150.92 234.759 148.553 235.484C145.485 236.425 143.681 234.425 141.755 230.964C140.531 234.378 139.287 244.068 146.059 246.061C152.539 247.968 156.541 240.288 156.676 226.239L159.088 226.263C159.164 227.255 159.207 228.258 159.212 229.274C159.23 237.024 155.535 242.21 155.424 245.463C155.31 248.748 158.559 252.569 161.123 254.658C163.653 252.62 166.882 248.864 166.756 245.577C166.633 242.322 162.919 237.061 162.909 229.311C162.91 228.296 162.949 227.293 163.021 226.302L165.246 226.325C165.434 240.377 169.473 248.138 175.944 246.362C182.707 244.505 181.422 234.79 180.186 231.351C178.272 234.773 176.475 236.737 173.404 235.735C171.034 234.961 170.383 230.666 170.788 226.381L172.279 226.396C173.968 226.413 175.328 225.122 175.325 223.5C175.322 221.878 173.958 220.561 172.268 220.544L172.049 220.541C174.115 214.493 177.066 208.9 183.055 208.724C189.399 208.541 192.067 213.53 194.388 217.749C198.636 209.928 199.616 196.795 188.335 192.964C178.785 189.723 168.285 206.914 165.806 220.479L163.862 220.459C166.399 208.216 173.178 198.296 173.252 191.962C173.347 184.498 166.164 171.825 160.94 163.722Z"
                                                fill="#EAAB00" stroke="#FFD172" stroke-width="2" />
                                            <path
                                                d="M160.94 163.691C155.746 171.688 148.609 184.218 148.731 191.684C148.828 198.02 155.644 208.077 158.226 220.372L156.096 220.35C153.567 206.735 143.01 189.332 133.474 192.381C122.205 195.985 123.224 209.139 127.501 217.045C129.808 212.873 132.464 207.937 138.81 208.248C144.799 208.545 147.764 214.197 149.852 220.287C148.161 220.27 146.803 221.561 146.806 223.183C146.809 224.805 148.171 226.122 149.863 226.139L151.135 226.152C151.556 230.445 150.92 234.728 148.553 235.454C145.485 236.394 143.681 234.394 141.755 230.933C140.531 234.347 139.287 244.037 146.059 246.031C152.539 247.937 156.541 240.257 156.676 226.208L159.088 226.232C159.164 227.224 159.207 228.228 159.212 229.243C159.23 236.993 155.535 242.179 155.424 245.432C155.31 248.717 158.559 252.538 161.123 254.627C163.653 252.59 166.882 248.833 166.756 245.546C166.633 242.291 162.919 237.03 162.909 229.28C162.91 228.265 162.949 227.262 163.021 226.272L165.246 226.294C165.434 240.347 169.473 248.108 175.944 246.331C182.707 244.474 181.422 234.759 180.186 231.32C178.272 234.742 176.475 236.706 173.404 235.704C171.034 234.931 170.383 230.635 170.788 226.35L172.279 226.365C173.968 226.382 175.328 225.092 175.325 223.47C175.322 221.848 173.958 220.53 172.268 220.513L172.049 220.511C174.115 214.463 177.066 208.87 183.055 208.693C189.399 208.511 192.067 213.5 194.388 217.718C198.636 209.898 199.616 196.764 188.335 192.933C178.785 189.692 168.285 206.883 165.806 220.448L163.862 220.428C166.399 208.185 173.178 198.265 173.252 191.931C173.347 184.467 166.164 171.794 160.94 163.691Z"
                                                fill="url(#paint10_radial_910_2)" stroke="#FFDF5F" />
                                            <defs>
                                                <radialGradient id="paint0_radial_910_2" cx="0" cy="0" r="1"
                                                    gradientUnits="userSpaceOnUse"
                                                    gradientTransform="translate(161.948 222.352) rotate(0.577114) scale(124.126 223.598)">
                                                    <stop stop-color="#E3E3E3" />
                                                    <stop offset="1" stop-color="#626262" />
                                                </radialGradient>
                                                <radialGradient id="paint1_radial_910_2" cx="0" cy="0" r="1"
                                                    gradientUnits="userSpaceOnUse"
                                                    gradientTransform="translate(161.868 178.761) rotate(0.577114) scale(44.8045 124.8)">
                                                    <stop stop-color="#E3E3E3" />
                                                    <stop offset="1" stop-color="#B1B1B1" stop-opacity="0" />
                                                </radialGradient>
                                                <radialGradient id="paint2_radial_910_2" cx="0" cy="0" r="1"
                                                    gradientUnits="userSpaceOnUse"
                                                    gradientTransform="translate(161.922 208.387) rotate(0.577114) scale(140.158 189.777)">
                                                    <stop stop-color="white" />
                                                    <stop offset="0.5" stop-color="white" stop-opacity="0.173913" />
                                                    <stop offset="1" stop-color="#BCBCBC" stop-opacity="0" />
                                                </radialGradient>
                                                <radialGradient id="paint3_radial_910_2" cx="0" cy="0" r="1"
                                                    gradientUnits="userSpaceOnUse"
                                                    gradientTransform="translate(106.072 118.426) rotate(0.387756) scale(2.50735 2.16035)">
                                                    <stop stop-color="#FDFDFD" />
                                                    <stop offset="0.5" stop-color="#A8A8A8" />
                                                    <stop offset="1" stop-color="#474747" />
                                                </radialGradient>
                                                <radialGradient id="paint4_radial_910_2" cx="0" cy="0" r="1"
                                                    gradientUnits="userSpaceOnUse"
                                                    gradientTransform="translate(216.865 118.535) rotate(0.387756) scale(2.50736 2.16036)">
                                                    <stop stop-color="#FDFDFD" />
                                                    <stop offset="0.5" stop-color="#A8A8A8" />
                                                    <stop offset="1" stop-color="#474747" />
                                                </radialGradient>
                                                <radialGradient id="paint5_radial_910_2" cx="0" cy="0" r="1"
                                                    gradientUnits="userSpaceOnUse"
                                                    gradientTransform="translate(84.5015 136.38) rotate(0.387756) scale(2.50735 2.16036)">
                                                    <stop stop-color="#FDFDFD" />
                                                    <stop offset="0.5" stop-color="#A8A8A8" />
                                                    <stop offset="1" stop-color="#474747" />
                                                </radialGradient>
                                                <radialGradient id="paint6_radial_910_2" cx="0" cy="0" r="1"
                                                    gradientUnits="userSpaceOnUse"
                                                    gradientTransform="translate(237.95 136.531) rotate(0.387755) scale(2.50736 2.16036)">
                                                    <stop stop-color="#FDFDFD" />
                                                    <stop offset="0.5" stop-color="#A8A8A8" />
                                                    <stop offset="1" stop-color="#474747" />
                                                </radialGradient>
                                                <radialGradient id="paint7_radial_910_2" cx="0" cy="0" r="1"
                                                    gradientUnits="userSpaceOnUse"
                                                    gradientTransform="translate(162.037 325.925) rotate(0.387755) scale(2.50736 2.16034)">
                                                    <stop stop-color="#FDFDFD" />
                                                    <stop offset="0.5" stop-color="#A8A8A8" />
                                                    <stop offset="1" stop-color="#474747" />
                                                </radialGradient>
                                                <radialGradient id="paint8_radial_910_2" cx="0" cy="0" r="1"
                                                    gradientUnits="userSpaceOnUse"
                                                    gradientTransform="translate(84.5796 227.484) rotate(0.387751) scale(2.50735 2.16035)">
                                                    <stop stop-color="#FDFDFD" />
                                                    <stop offset="0.5" stop-color="#A8A8A8" />
                                                    <stop offset="1" stop-color="#474747" />
                                                </radialGradient>
                                                <radialGradient id="paint9_radial_910_2" cx="0" cy="0" r="1"
                                                    gradientUnits="userSpaceOnUse"
                                                    gradientTransform="translate(238.028 227.635) rotate(0.387754) scale(2.50736 2.16036)">
                                                    <stop stop-color="#FDFDFD" />
                                                    <stop offset="0.5" stop-color="#A8A8A8" />
                                                    <stop offset="1" stop-color="#474747" />
                                                </radialGradient>
                                                <radialGradient id="paint10_radial_910_2" cx="0" cy="0" r="1"
                                                    gradientUnits="userSpaceOnUse"
                                                    gradientTransform="translate(161.128 201.475) rotate(-90.1047) scale(61.4147 19.5815)">
                                                    <stop stop-color="#FFF298" />
                                                    <stop offset="1" stop-color="#FFD50F" />
                                                </radialGradient>
                                            </defs>
                                        </svg>