<svg width="64" height="64" viewBox="0 0 64 64" fill="none" xmlns="http://www.w3.org/2000/svg">
<path d="M2 32C2 37.9 3.7 43.4 6.6 48H57.3C60.2 43.4 61.9 37.9 61.9 32C61.9 26.1 60.2 20.6 57.3 16H6.6C3.7 20.6 2 26.1 2 32Z" fill="#FFCE31"/>
<path d="M57.3996 16C52.0996 7.6 42.6996 2 31.9996 2C21.2996 2 11.8996 7.6 6.59961 16H57.3996ZM6.59961 48C11.8996 56.4 21.2996 62 31.9996 62C42.6996 62 52.0996 56.4 57.3996 48H6.59961Z" fill="#ED4C5C"/>
<path d="M9.2002 28.7H12.4002V30.5H9.2002V28.7ZM9.2002 41.9H12.5002V43.6H9.2002V41.9Z" fill="#C8B100"/>
<path d="M8.90039 39.1C8.60039 39.3 8.40039 39.5 8.40039 39.6C8.40039 39.7 8.50039 39.8 8.70039 39.9C8.90039 40 9.10039 40.2 9.00039 40.4C9.20039 40.2 9.30039 40 9.30039 39.8C9.30039 39.5 9.10039 39.2 8.90039 39.1" fill="#ED4C5C"/>
<path d="M9.7002 30.5H12.0002V41.9H9.7002V30.5Z" fill="white"/>
<path d="M14.4 34.7C13.9 34.5 13 34.3 12 34.3C11.7 34.3 11.3 34.3 10.9 34.4C9.49997 34.6 8.39997 35.2 8.49997 35.6L7.99997 34.5C7.89997 34 9.09997 33.4 10.6 33.1C11.1 33 11.6 33 12 33C13 33 13.9 33.1 14.4 33.3V34.7" fill="#ED4C5C"/>
<path d="M9.69961 36.2C9.09961 36.2 8.59961 36 8.59961 35.7C8.59961 35.5 8.79961 35.2 9.19961 35H9.79961L9.69961 36.2ZM11.9996 35.3C12.3996 35.4 12.6996 35.5 12.8996 35.6C12.9996 35.7 12.5996 36.1 11.9996 36.4V35.3" fill="#ED4C5C"/>
<path d="M8.19996 38.4C8.09996 38.2 8.79996 37.8 9.69996 37.5C10.1 37.4 10.4 37.2 10.9 37C12.1 36.5 13.1 35.8 12.9 35.6L13.1 36.8C13.2 37 12.4 37.6 11.2 38.2C10.8 38.4 10.1 38.7 9.69996 38.8C8.99996 39 8.39996 39.4 8.39996 39.5L8.19996 38.4" fill="#ED4C5C"/>
<path d="M30.6996 28.7H33.8996V30.5H30.6996V28.7ZM30.5996 41.9H33.8996V43.6H30.5996V41.9Z" fill="#C8B100"/>
<path d="M34.1998 39.1C34.4998 39.3 34.6998 39.5 34.6998 39.6C34.6998 39.7 34.5998 39.8 34.3998 39.9C34.1998 40.1 33.9998 40.4 34.0998 40.5C33.8998 40.3 33.7998 40.1 33.7998 39.9C33.7998 39.5 33.9998 39.2 34.1998 39.1" fill="#ED4C5C"/>
<path d="M31.0996 30.5H33.3996V41.9H31.0996V30.5Z" fill="white"/>
<path d="M28.7002 34.7C29.2002 34.5 30.1002 34.3 31.1002 34.3C31.4002 34.3 31.8002 34.3 32.2002 34.4C33.6002 34.6 34.7002 35.2 34.6002 35.6L35.1002 34.4C35.2002 33.9 34.0002 33.3 32.5002 33H31.1002C30.1002 33 29.2002 33.1 28.7002 33.3V34.7" fill="#ED4C5C"/>
<path d="M33.3999 36.2C33.9999 36.2 34.4999 36 34.4999 35.7C34.4999 35.5 34.2999 35.2 33.8999 35H33.2999L33.3999 36.2ZM31.0999 35.3C30.6999 35.4 30.3999 35.5 30.1999 35.6C30.0999 35.7 30.4999 36.1 31.0999 36.4V35.3" fill="#ED4C5C"/>
<path d="M34.8998 38.4C34.9998 38.2 34.2998 37.8 33.3998 37.5C32.9998 37.4 32.6998 37.2 32.1998 37C30.9998 36.5 29.9998 35.8 30.1998 35.6L29.9998 36.8C29.8998 37 30.6998 37.6 31.8998 38.2C32.2998 38.4 32.9998 38.7 33.3998 38.8C34.0998 39 34.6998 39.5 34.5998 39.6L34.8998 38.4V38.4ZM21.4998 22.3C23.3998 22.3 27.2998 22.7 28.6998 24.1C27.1998 27.7 24.7998 26.2 21.4998 26.2C18.2998 26.2 15.7998 27.7 14.2998 24.1C15.6998 22.7 19.4998 22.3 21.4998 22.3Z" fill="#ED4C5C"/>
<path d="M26.3998 26.3C25.1998 25.6 23.3998 25.5 21.4998 25.5C19.5998 25.5 17.7998 25.7 16.5998 26.3L16.9998 28C18.0998 28.3 19.6998 28.5 21.4998 28.5C23.2998 28.5 24.7998 28.3 25.9998 28L26.3998 26.3ZM28.0998 22C27.6998 21.7 26.8998 21.4 26.1998 21.4C25.8998 21.4 25.5998 21.4 25.2998 21.5C25.2998 21.5 24.6998 20.7 23.2998 20.7C22.7998 20.7 22.3998 20.8 21.9998 21V20.9C21.8998 20.7 21.6998 20.5 21.4998 20.5C21.2998 20.5 20.9998 20.8 20.9998 21V21.1C20.5998 20.9 20.1998 20.8 19.6998 20.8C18.2998 20.8 17.6998 21.7 17.6998 21.6C17.3998 21.5 17.0998 21.5 16.7998 21.5C12.1998 21.5 14.4998 24.6 14.4998 24.6L14.9998 24C13.8998 22.6 14.8998 21.8 16.8998 21.8C17.1998 21.8 17.3998 21.8 17.5998 21.9C16.8998 22.9 18.1998 23.8 18.1998 23.8L18.4998 23.3C17.7998 22.8 17.6998 21.1 19.6998 21.1C20.1998 21.1 20.5998 21.2 20.9998 21.5C20.9998 21.6 20.8998 23 20.7998 23.2L21.5998 23.9L22.3998 23.2C22.2998 22.9 22.1998 21.6 22.1998 21.5C22.4998 21.3 22.9998 21.1 23.4998 21.1C25.5998 21.1 25.5998 22.8 24.6998 23.3L24.9998 23.8C24.9998 23.8 26.0998 22.9 25.5998 21.9C25.7998 21.9 26.0998 21.8 26.2998 21.8C28.6998 21.8 28.7998 23.6 28.1998 24L28.5998 24.6C28.3998 24.6 29.4998 23.2 28.0998 22" fill="#C8B100"/>
<path d="M20.9004 20.1C20.9004 19.8 21.2004 19.5 21.5004 19.5C21.9004 19.5 22.1004 19.8 22.1004 20.1C22.1004 20.4 21.8004 20.7 21.5004 20.7C21.2004 20.7 20.9004 20.4 20.9004 20.1Z" fill="#005BBF"/>
<path d="M21.3004 18.4V18.7H21.0004V19H21.3004V20H20.9004V20.3H22.1004L22.2004 20.1L22.1004 20H21.7004V19H22.0004V18.7H21.7004V18.4H21.3004Z" fill="#C8B100"/>
<path d="M21.5004 28.3C19.9004 28.3 18.5004 28.1 17.4004 27.8C18.5004 27.5 19.9004 27.3 21.5004 27.3C23.1004 27.3 24.5004 27.5 25.6004 27.8C24.6004 28.1 23.1004 28.3 21.5004 28.3Z" fill="#ED4C5C"/>
<path d="M21.6004 45.6C19.7004 45.6 17.9004 45.1 16.3004 44.4C15.1004 43.8 14.4004 42.7 14.4004 41.4V36.6H28.8004V41.4C28.8004 42.7 28.0004 43.9 26.9004 44.4C25.3004 45.2 23.5004 45.6 21.6004 45.6ZM21.5004 28.6H28.7004V36.6H21.5004V28.6Z" fill="white"/>
<path d="M21.6004 41.4C21.6004 43.3 20.0004 44.8 18.0004 44.8C16.0004 44.8 14.4004 43.3 14.4004 41.4V36.6H21.6004V41.4Z" fill="#ED4C5C"/>
<path d="M15.8998 44.2C16.0998 44.3 16.3998 44.5 16.7998 44.6V36.4H15.9998L15.8998 44.2ZM14.2998 41.3C14.2998 42.3 14.6998 43.1 15.0998 43.5V36.4H14.2998V41.3Z" fill="#C8B100"/>
<path d="M17.5 44.8H18.3V36.4H17.5V44.8Z" fill="#C7B500"/>
<path d="M19.0996 44.6C19.3996 44.5 19.7996 44.3 19.9996 44.2V36.4H19.1996L19.0996 44.6" fill="#C8B100"/>
<path d="M14.2998 28.6H21.4998V36.6H14.2998V28.6Z" fill="#ED4C5C"/>
<path d="M20.7998 43.5C21.1998 43.2 21.4998 42.5 21.5998 41.7V36.5H20.7998V43.5Z" fill="#C8B100"/>
<path d="M28.8004 36.6V41.4C28.8004 43.3 27.2004 44.8 25.2004 44.8C23.2004 44.8 21.6004 43.3 21.6004 41.4V36.6H28.8004V36.6ZM26.2004 30C26.5004 30.6 26.5004 32.1 25.6004 31.8C25.8004 31.9 25.9004 32.6 26.2004 33C26.7004 33.6 27.3004 33.1 27.2004 32.4C27.0004 31.3 27.1004 30.6 27.3004 29.5C27.3004 29.6 27.8004 29.6 28.0004 29.4C27.9004 29.7 27.8004 30.1 28.0004 30.1C27.8004 30.4 27.3004 30.9 27.2004 31.2C27.1004 31.9 28.2004 33.2 27.0004 33.5C26.2004 33.7 26.7004 34.3 27.0004 34.6C27.0004 34.6 26.6004 35.9 26.8004 35.8C26.0004 36.1 26.2004 35.4 26.2004 35.4C26.6004 34.2 25.5004 34.1 25.6004 33.9C24.6004 33.8 25.7004 34.8 24.8004 34.8C24.6004 34.8 24.2004 35 24.2004 35C23.1004 34.9 23.7004 33.9 24.1004 34C24.4004 34.1 24.7004 34.6 24.7004 33.9C24.7004 33.9 24.2004 33.1 25.5004 33.1C25.0004 33.1 24.7004 32.7 24.5004 32.2C24.3004 32.3 24.0004 32.8 22.9004 32.9C22.9004 32.9 22.6004 31.8 22.9004 32C23.3004 32.2 23.5004 32.2 23.9004 31.8C23.7004 31.5 22.5004 31.1 22.7004 30.4C22.7004 30.2 23.3004 29.9 23.3004 29.9C23.2004 30.4 23.5004 30.9 24.1004 30.9C24.9004 31 24.6004 30.7 24.7004 30.5C24.8004 30.3 25.4004 30.6 25.2004 30.1C25.2004 30 24.5004 29.9 24.7004 29.6C25.1004 29.1 25.7004 29.5 26.2004 30V30ZM21.6004 44.6L21.4004 44.1L21.6004 43.5L21.8004 44.1L21.6004 44.6Z" fill="#ED4C5C"/>
<path d="M16.5004 30.3V30.8H16.7004V31.2H16.2004V32.2H16.5004V34.4H15.9004V35.5H20.0004V34.4H19.5004V32.2H19.7004V31.2H19.2004V30.8H19.5004V30.3H18.5004V30.8H18.7004V31.2H18.2004V30H18.5004V29.5H17.4004V30H17.7004V31.2H17.2004V30.8H17.4004V30.3H16.5004ZM27.8004 42.6V37.6H22.6004V42.6L25.0004 43.7H25.3004L27.8004 42.6ZM25.0004 38V39.7L23.3004 38H25.0004ZM22.9004 38.1L24.9004 40.1L22.9004 42.1V38.1ZM23.1004 42.5L25.0004 40.6V43.4L23.1004 42.5ZM25.3004 43.3V40.5L27.2004 42.4L25.3004 43.3ZM27.4004 42.1L25.4004 40.1L27.4004 38.1V42.1ZM25.3004 38H27.0004L25.3004 39.7V38Z" fill="#C8B100"/>
<path d="M19.2002 36.5C19.2002 35 20.2002 33.9 21.5002 33.9C22.8002 33.9 23.8002 35.1 23.8002 36.5C23.8002 37.9 22.8002 39.1 21.5002 39.1C20.2002 39.1 19.2002 38 19.2002 36.5Z" fill="#ED4C5C"/>
<path d="M19.9004 36.5C19.9004 35.4 20.6004 34.6 21.5004 34.6C22.4004 34.6 23.1004 35.5 23.1004 36.5C23.1004 37.6 22.4004 38.4 21.5004 38.4C20.7004 38.5 19.9004 37.6 19.9004 36.5Z" fill="#005BBF"/>
<path d="M20.8004 35.2L20.4004 36.3L20.7004 36.4L20.5004 36.8H21.1004L20.9004 36.4L21.2004 36.3L20.8004 35.2V35.2ZM22.3004 35.2L21.9004 36.3L22.2004 36.4L22.0004 36.8H22.6004L22.5004 36.4L22.8004 36.3L22.3004 35.2V35.2ZM21.6004 36.5L21.1004 37.6L21.4004 37.7L21.3004 38.1H21.8004L21.7004 37.7L22.0004 37.6L21.6004 36.5Z" fill="#C8B100"/>
</svg>
