<svg width="60" height="64" viewBox="0 0 60 64" fill="none" xmlns="http://www.w3.org/2000/svg">
<path d="M0 23H22.9L30 2L37.1 23H60L41.5 36L48.6 57L30 44L11.5 57L18.6 36L0 23Z" fill="#FFCE31"/>
<path d="M50.3646 10.4145L49.3256 8.2115C49.2975 8.14853 49.2517 8.09504 49.1939 8.05751C49.136 8.01998 49.0686 8.00001 48.9996 8.00001C48.9306 8.00001 48.8632 8.01998 48.8053 8.05751C48.7474 8.09504 48.7017 8.14853 48.6736 8.2115L47.6336 10.4145L45.3106 10.7705C45.0126 10.8155 44.8946 11.1995 45.1106 11.4195L46.7906 13.1325L46.3946 15.5535C46.3436 15.8645 46.6546 16.1015 46.9216 15.9545L48.9996 14.8115L51.0776 15.9545C51.3446 16.1015 51.6556 15.8645 51.6046 15.5545L51.2086 13.1325L52.8886 11.4195C53.1046 11.1995 52.9866 10.8155 52.6886 10.7695L50.3646 10.4145Z" fill="#F6F950" stroke="#FFD233" stroke-width="1.5" stroke-linecap="round" stroke-linejoin="round"/>
<path d="M12.3646 10.4145L11.3256 8.2115C11.2975 8.14853 11.2517 8.09504 11.1939 8.05751C11.136 8.01998 11.0686 8.00001 10.9996 8.00001C10.9306 8.00001 10.8632 8.01998 10.8053 8.05751C10.7474 8.09504 10.7017 8.14853 10.6736 8.2115L9.6336 10.4145L7.3106 10.7705C7.0126 10.8155 6.8946 11.1995 7.1106 11.4195L8.7906 13.1325L8.3946 15.5535C8.3436 15.8645 8.6546 16.1015 8.9216 15.9545L10.9996 14.8115L13.0776 15.9545C13.3446 16.1015 13.6556 15.8645 13.6046 15.5545L13.2086 13.1325L14.8886 11.4195C15.1046 11.1995 14.9866 10.8155 14.6886 10.7695L12.3646 10.4145Z" fill="#F6F950" stroke="#FFD233" stroke-width="1.5" stroke-linecap="round" stroke-linejoin="round"/>
<path d="M9.03574 37.7166L7.86677 35.238C7.83515 35.1671 7.78368 35.1069 7.71859 35.0647C7.6535 35.0225 7.57757 35 7.49999 35C7.4224 35 7.34648 35.0225 7.28139 35.0647C7.2163 35.1069 7.16483 35.1671 7.13321 35.238L5.96311 37.7166L3.34951 38.1171C3.01423 38.1678 2.88147 38.5998 3.12449 38.8473L5.01465 40.7747L4.56911 43.4986C4.51173 43.8485 4.86164 44.1151 5.16204 43.9497L7.49999 42.6637L9.83794 43.9497C10.1383 44.1151 10.4882 43.8485 10.4309 43.4997L9.98532 40.7747L11.8755 38.8473C12.1185 38.5998 11.9857 38.1678 11.6505 38.116L9.03574 37.7166Z" fill="#F6F950" stroke="#FFD233" stroke-width="1.5" stroke-linecap="round" stroke-linejoin="round"/>
<path d="M54.3646 38.4145L53.3256 36.2115C53.2975 36.1485 53.2517 36.095 53.1939 36.0575C53.136 36.02 53.0686 36 52.9996 36C52.9306 36 52.8632 36.02 52.8053 36.0575C52.7474 36.095 52.7017 36.1485 52.6736 36.2115L51.6336 38.4145L49.3106 38.7705C49.0126 38.8155 48.8946 39.1995 49.1106 39.4195L50.7906 41.1325L50.3946 43.5535C50.3436 43.8645 50.6546 44.1015 50.9216 43.9545L52.9996 42.8115L55.0776 43.9545C55.3446 44.1015 55.6556 43.8645 55.6046 43.5545L55.2086 41.1325L56.8886 39.4195C57.1046 39.1995 56.9866 38.8155 56.6886 38.7695L54.3646 38.4145Z" fill="#F6F950" stroke="#FFD233" stroke-width="1.5" stroke-linecap="round" stroke-linejoin="round"/>
<path d="M29.2 25.44C31.312 25.44 33.216 25.936 34.912 26.928C36.64 27.888 37.984 29.216 38.944 30.912C39.936 32.608 40.432 34.496 40.432 36.576C40.432 38.72 39.824 40.704 38.608 42.528C37.392 44.352 35.776 45.808 33.76 46.896C31.744 47.952 29.568 48.48 27.232 48.48C25.984 48.48 24.688 48.288 23.344 47.904C22.032 47.52 20.96 46.992 20.128 46.32C19.744 46 19.424 45.552 19.168 44.976C18.912 44.4 18.784 43.856 18.784 43.344C18.784 42.768 19.024 42.256 19.504 41.808C20.016 41.328 20.672 41.088 21.472 41.088C22.048 41.088 22.768 41.392 23.632 42C24.976 42.832 26.16 43.248 27.184 43.248C28.496 43.248 29.728 42.944 30.88 42.336C32.032 41.728 32.944 40.912 33.616 39.888C34.32 38.864 34.672 37.76 34.672 36.576C34.672 34.848 34.08 33.44 32.896 32.352C31.712 31.264 30.304 30.72 28.672 30.72C27.936 30.72 27.28 30.816 26.704 31.008C26.128 31.2 25.44 31.488 24.64 31.872C24.064 32.16 23.6 32.368 23.248 32.496C22.928 32.624 22.592 32.688 22.24 32.688C20.992 32.688 20.096 32.352 19.552 31.68C19.04 31.008 18.784 30.208 18.784 29.28C18.784 28.96 18.8 28.736 18.832 28.608L20.32 16.704C20.448 16.032 20.768 15.488 21.28 15.072C21.824 14.624 22.464 14.4 23.2 14.4H37.072C37.84 14.4 38.48 14.656 38.992 15.168C39.504 15.68 39.76 16.32 39.76 17.088C39.76 17.824 39.504 18.448 38.992 18.96C38.48 19.44 37.84 19.68 37.072 19.68H25.168L24.256 26.64C24.864 26.288 25.632 26 26.56 25.776C27.488 25.552 28.368 25.44 29.2 25.44Z" fill="#F79148"/>
</svg>
