     <svg width="414"
                                                                                                    height="411"
                                                                                                    viewBox="0 0 414 411"
                                                                                                    fill="none"
                                                                                                    xmlns="http://www.w3.org/2000/svg">
                                                                                                    <path
                                                                                                        d="M345.92 354.704C345.92 354.704 337.065 360.15 328.222 354.704C319.367 349.259 324.645 340.479 324.645 340.479C314.675 339.623 313.628 330.455 317.251 322.167C311.308 320.524 305.169 319.683 299 319.667H115C96.7001 319.667 79.1496 326.884 66.2096 339.73C53.2696 352.576 46 369.999 46 388.167V411H368V388.167C368 381.088 366.919 374.25 364.907 367.822C345.541 375.152 345.92 354.704 345.92 354.704Z"
                                                                                                        fill="#D99E82" />
                                                                                                    <path
                                                                                                        d="M156.86 320.82C176.916 335.285 189.624 363.381 207 363.381C224.377 363.381 237.084 335.273 257.14 320.82V277.311H156.86V320.82Z"
                                                                                                        fill="#CCD6DD" />
                                                                                                    <path
                                                                                                        d="M156.768 296.525C170.752 312.212 188.094 319.667 206.954 319.667C225.802 319.667 243.144 312.2 257.14 296.525V256.669H156.768V296.525Z"
                                                                                                        fill="#99AAB5" />
                                                                                                    <path
                                                                                                        d="M131.606 181.925C131.606 198.456 123.165 211.859 112.758 211.859C102.35 211.859 93.9092 198.456 93.9092 181.925C93.9092 165.393 102.35 151.979 112.758 151.979C123.177 151.99 131.606 165.393 131.606 181.925ZM320.08 181.925C320.08 198.456 311.639 211.859 301.231 211.859C290.824 211.859 282.383 198.456 282.383 181.925C282.383 165.393 290.824 151.979 301.231 151.979C311.65 151.99 320.08 165.393 320.08 181.925Z"
                                                                                                        fill="#CCD6DD" />
                                                                                                    <path
                                                                                                        d="M108.997 193.627C108.997 129.819 152.881 78.0786 207 78.0786C261.119 78.0786 305.003 129.808 305.003 193.627C305.003 251.167 246.169 309.163 207 309.163C167.831 309.163 108.997 251.167 108.997 193.627Z"
                                                                                                        fill="#CCD6DD" />
                                                                                                    <path
                                                                                                        d="M140.668 202.851C136.371 198.562 133.958 192.758 133.958 186.708C133.958 180.658 136.371 174.854 140.668 170.565L148.799 162.493C153.119 158.227 158.966 155.832 165.06 155.832C171.154 155.832 177 158.227 181.321 162.493C185.619 166.783 188.031 172.587 188.031 178.637C188.031 184.687 185.619 190.491 181.321 194.78L173.19 202.851C168.87 207.118 163.024 209.513 156.929 209.513C150.835 209.513 144.989 207.118 140.668 202.851ZM232.668 162.482C236.989 158.215 242.835 155.82 248.929 155.82C255.024 155.82 260.87 158.215 265.19 162.482L273.321 170.554C277.619 174.843 280.031 180.647 280.031 186.697C280.031 192.747 277.619 198.551 273.321 202.84C269 207.107 263.154 209.502 257.06 209.502C250.966 209.502 245.119 207.107 240.799 202.84L232.668 194.768C228.371 190.479 225.958 184.675 225.958 178.625C225.958 172.575 228.371 166.771 232.668 162.482Z"
                                                                                                        fill="#99AAB5" />
                                                                                                    <path
                                                                                                        d="M207 249.066C175.329 249.066 165.6 257.126 163.978 258.747C163.26 259.423 162.683 260.233 162.28 261.131C161.878 262.028 161.657 262.996 161.631 263.978C161.578 265.962 162.321 267.885 163.696 269.325C165.072 270.765 166.967 271.603 168.965 271.655C170.964 271.708 172.901 270.97 174.351 269.604C174.949 269.171 182.643 264.045 207 264.045C232.3 264.045 239.614 269.582 239.683 269.639C240.378 270.321 241.202 270.859 242.109 271.222C243.016 271.585 243.986 271.764 244.964 271.75C245.941 271.737 246.906 271.53 247.802 271.142C248.698 270.754 249.507 270.192 250.182 269.49C251.577 268.037 252.341 266.099 252.311 264.092C252.281 262.085 251.459 260.17 250.021 258.759C248.4 257.126 238.671 249.066 207 249.066Z"
                                                                                                        fill="#66757F" />
                                                                                                    <path
                                                                                                        d="M329.429 113.687C319.849 111.541 302.921 91.9041 296.734 82.5539C296.665 82.4511 296.596 82.4054 296.539 82.3141C280.968 61.1933 254.633 44.0797 220.386 40.4834C222.086 37.7277 223.391 34.7496 224.261 31.6355C225.664 26.3839 227.378 12.7638 219.466 21.8058C212.853 29.3636 191.797 38.1088 185.081 40.7689C168.682 32.6973 145.394 33.8846 140.162 36.3849C133.699 39.4788 139.713 39.0221 143.75 39.7185C148.764 40.5748 154.18 44.1254 159.378 47.9043C139.702 55.4735 125.327 67.6551 115.805 81.6177L115.759 81.6748C108.744 91.7899 96.2663 106.084 89.6078 108.458C76.6703 113.059 92.4023 114.886 98.9458 111.986C100.429 111.335 101.947 110.662 103.477 109.897C102.167 115.494 101.488 121.218 101.453 126.965C101.453 166.615 115.437 177.62 117.691 166.615C125.81 126.965 150.167 111.096 150.167 111.096C187.116 154.833 183.517 117.729 183.517 117.729C248.446 192.416 215.119 119.019 215.119 119.019C231.357 134.888 280.071 134.888 280.071 134.888L296.309 166.603C304.428 182.473 312.547 166.603 312.547 126.953C312.509 123.635 312.205 120.325 311.638 117.055C316.526 118.847 320.976 119.51 324.633 119.624C332.304 119.875 339.008 115.833 329.429 113.687Z"
                                                                                                        fill="#292F33" />
                                                                                                    <path
                                                                                                        d="M178.25 176.958C178.25 183.238 173.075 188.375 166.75 188.375H155.25C148.925 188.375 143.75 183.238 143.75 176.958C143.75 170.679 148.925 165.542 155.25 165.542H166.75C173.075 165.542 178.25 170.679 178.25 176.958ZM270.25 176.958C270.25 183.238 265.075 188.375 258.75 188.375H247.25C240.925 188.375 235.75 183.238 235.75 176.958C235.75 170.679 240.925 165.542 247.25 165.542H258.75C265.075 165.542 270.25 170.679 270.25 176.958Z"
                                                                                                        fill="#662113" />
                                                                                                    <path
                                                                                                        d="M207.437 356.588C207.437 356.588 245.893 380.986 254.081 384.239C255.875 384.959 249.872 342.5 249.872 342.5L222.099 348.745L206.954 366.224L195.511 342.5H164.151C164.151 342.5 158.125 385.666 161.483 383.885C168.82 379.981 207.437 356.588 207.437 356.588Z"
                                                                                                        fill="#C1694F" />
                                                                                                    <path
                                                                                                        d="M222.088 348.745C221.777 349.361 217.925 351.907 215.119 357.479C212.145 355.924 208.994 354.728 205.735 353.917C190.382 350.161 180.699 353.471 180.699 353.471C180.699 353.471 183.149 370.494 185.253 374.25C187.047 377.458 191.153 384.251 191.153 384.251C191.153 384.251 183.517 388.167 180.285 411H224.974C221.743 392.802 212.577 387.459 212.577 387.459C212.577 387.459 222.111 380.278 224.261 377.287C227.849 372.286 228.769 368.062 228.769 368.062C228.769 368.062 228.183 367.354 227.102 366.247C229.517 365.219 232.07 363.724 234.669 361.406C246.709 350.709 222.088 348.745 222.088 348.745Z"
                                                                                                        fill="#226699" />
                                                                                                    <path
                                                                                                        d="M152.858 303.969C159.367 310.431 195.511 342.591 195.511 342.591C195.511 342.591 182.562 356.771 160.045 382.938C157.78 385.564 142.312 330.136 141.841 317.771C141.703 314.301 149.741 300.875 152.858 303.969ZM261.395 303.969C254.886 310.431 222.088 348.745 222.088 348.745C222.088 348.745 231.679 356.771 254.207 382.938C256.473 385.564 271.94 330.136 272.412 317.771C272.55 314.301 264.511 300.875 261.395 303.969Z"
                                                                                                        fill="#FFD983" />
                                                                                                    <path
                                                                                                        d="M309.684 380.643C308.223 402.666 300.139 411 300.139 411H316.066C316.066 411 318.24 377.035 309.684 380.643Z"
                                                                                                        fill="#662113" />
                                                                                                    <path
                                                                                                        d="M195.5 228.333C193.976 228.33 192.515 227.728 191.437 226.658C190.36 225.588 189.753 224.138 189.75 222.625V211.208C189.75 208.069 192.338 205.5 195.5 205.5C198.663 205.5 201.25 208.069 201.25 211.208V222.625C201.25 225.765 198.663 228.333 195.5 228.333ZM218.5 228.333C216.976 228.33 215.515 227.728 214.437 226.658C213.36 225.588 212.753 224.138 212.75 222.625V211.208C212.75 208.069 215.338 205.5 218.5 205.5C221.663 205.5 224.25 208.069 224.25 211.208V222.625C224.25 225.765 221.663 228.333 218.5 228.333Z"
                                                                                                        fill="#99AAB5" />
                                                                                                    <path
                                                                                                        d="M158.827 237.284C139.162 237.284 123.269 221.792 122.429 220.947C121.895 220.417 121.47 219.788 121.181 219.095C120.891 218.402 120.742 217.659 120.741 216.909C120.741 216.159 120.889 215.417 121.178 214.723C121.466 214.03 121.89 213.4 122.423 212.87C123.502 211.798 124.965 211.195 126.49 211.194C127.246 211.193 127.994 211.341 128.692 211.627C129.391 211.914 130.025 212.334 130.56 212.864C130.767 213.069 150.949 232.66 169.924 223.219C170.6 222.884 171.336 222.684 172.089 222.631C172.843 222.578 173.599 222.673 174.316 222.911C175.032 223.148 175.695 223.524 176.265 224.015C176.836 224.507 177.303 225.105 177.641 225.776C177.978 226.447 178.179 227.177 178.233 227.925C178.286 228.674 178.19 229.425 177.951 230.136C177.712 230.847 177.334 231.505 176.838 232.071C176.343 232.638 175.74 233.102 175.065 233.437C170.033 235.97 164.469 237.289 158.827 237.284ZM255.174 237.284C249.528 237.289 243.96 235.971 238.924 233.437C237.559 232.76 236.521 231.573 236.038 230.136C235.555 228.699 235.666 227.131 236.348 225.776C237.03 224.421 238.226 223.39 239.673 222.911C241.12 222.431 242.7 222.542 244.065 223.219C263.12 232.683 283.234 213.058 283.429 212.875C284.514 211.835 285.966 211.26 287.474 211.273C288.981 211.286 290.423 211.886 291.49 212.945C292.556 214.003 293.16 215.435 293.174 216.932C293.187 218.428 292.607 219.87 291.56 220.947C290.732 221.792 274.827 237.284 255.174 237.284Z"
                                                                                                        fill="#9AAAB4" />
                                                                                                    <path
                                                                                                        d="M64.5956 387.733C68.2641 384.867 74.6236 364.945 86.0891 360.207C97.5546 355.469 122.958 349.282 122.579 361.235C122.199 373.188 107.169 389.605 110.297 395.69C99.0266 401.125 52.9461 396.821 64.5956 387.733Z"
                                                                                                        fill="#662113" />
                                                                                                    <path
                                                                                                        d="M71.7369 385.906C75.4054 383.041 79.2234 365.973 90.6889 361.246C102.154 356.52 122.958 349.293 122.567 361.246C122.176 373.199 108.422 380.483 97.1519 385.906C85.8934 391.329 60.0989 394.982 71.7369 385.906Z"
                                                                                                        fill="#CCD6DD" />
                                                                                                </svg>