<svg width="348" height="312" viewBox="0 0 348 312" fill="none" xmlns="http://www.w3.org/2000/svg">
<g clip-path="url(#clip0_948_21)">
<path d="M0 -21H360V362H0V-21Z" fill="url(#paint0_radial_948_21)"/>
<path d="M156.645 311.352C129.076 308.804 102.586 300.38 79.3893 286.782C59.8578 275.374 55.4426 270.675 55.4426 261.315C55.4426 242.497 78.5411 209.523 118.061 171.946C140.485 150.594 171.762 125.575 175.133 126.258C181.701 127.584 234.249 173.506 253.911 195.112C285.014 229.296 299.325 257.298 292.061 269.778C286.536 279.255 252.258 297.799 227.094 304.917C206.344 310.786 179.091 313.282 156.645 311.352V311.352ZM29.0598 241.737C12.8126 219.429 4.61282 197.472 0.654317 165.687C-0.650683 155.176 -0.172183 149.19 3.63407 127.662C8.37557 100.81 25.4276 69.7468 45.9378 50.6368C54.6596 42.5053 55.4426 42.3103 66.0783 45.5083C79.0196 49.4083 92.8308 57.9493 114.211 75.3043L126.696 85.4248L119.888 92.9323C88.2198 127.779 54.8118 177.172 42.1968 207.729C35.3456 224.343 32.5833 241.015 35.5413 247.957C37.5206 252.637 35.6936 250.882 29.0163 241.737H29.0598ZM314.007 245.539C315.616 238.519 313.593 225.649 308.83 212.643C298.542 184.504 264.134 132.147 232.531 96.5593L222.591 85.3468L233.336 76.4938C247.386 64.9303 257.152 58.0078 267.701 52.1188C275.988 47.4973 287.863 43.3828 292.953 43.3828C296.106 43.3828 307.177 53.6788 316.116 64.9108C330.339 83.0835 340.278 103.666 345.327 125.4C348.654 139.596 348.937 169.977 345.849 184.134C342.95 196.813 338.576 209.186 332.799 221.047C328.905 228.711 319.227 243.589 314.964 248.425C312.789 250.921 312.789 250.902 314.028 245.539H314.007ZM159.538 38.0593C144.966 31.4293 122.476 24.3118 110.035 22.4008C104.572 21.6714 99.0466 21.3907 93.5268 21.5623C83.2826 22.0303 83.7393 21.5623 100.182 14.5813C113.072 9.03136 126.695 4.96897 140.724 2.49132C158.124 -0.804178 190.88 -0.823678 208.019 2.39382C226.506 5.90382 248.322 13.1578 260.61 19.9438L264.264 21.9523L255.891 21.5623C239.23 20.8213 215.001 26.8273 188.944 38.1958C181.092 41.6278 174.241 44.3578 173.741 44.2798C168.932 42.3331 164.188 40.2587 159.516 38.0593H159.538Z" fill="url(#paint1_radial_948_21)"/>
</g>
<defs>
<radialGradient id="paint0_radial_948_21" cx="0" cy="0" r="1" gradientUnits="userSpaceOnUse" gradientTransform="translate(180 170.5) rotate(90) scale(191.5 198.775)">
<stop offset="0.514303" stop-color="#22C964"/>
<stop offset="1" stop-color="white"/>
</radialGradient>
<radialGradient id="paint1_radial_948_21" cx="0" cy="0" r="1" gradientUnits="userSpaceOnUse" gradientTransform="translate(174.002 155.997) rotate(90) scale(155.997 174.002)">
<stop stop-color="#F5F0EE"/>
<stop offset="1" stop-color="#F5F0EE"/>
</radialGradient>
<clipPath id="clip0_948_21">
<rect width="348" height="312" fill="white"/>
</clipPath>
</defs>
</svg>
